<svg width="1086" height="570" viewBox="0 0 1086 570" fill="none" xmlns="http://www.w3.org/2000/svg">
<g opacity="0.1">
<path opacity="0.1" d="M472.42 377.02C478.705 377.02 483.8 370.349 483.8 362.12C483.8 353.891 478.705 347.22 472.42 347.22C466.135 347.22 461.04 353.891 461.04 362.12C461.04 370.349 466.135 377.02 472.42 377.02Z" fill="#EB2441"/>
<path opacity="0.1" d="M481.43 298.37C483.018 295.598 483.839 292.454 483.81 289.26C483.81 281.03 478.71 274.36 472.42 274.36C466.13 274.36 461 281.05 461 289.28C460.971 292.474 461.792 295.618 463.38 298.39C461.82 301.171 461.001 304.306 461.001 307.495C461.001 310.684 461.82 313.819 463.38 316.6C461.82 319.381 461.001 322.516 461.001 325.705C461.001 328.894 461.82 332.029 463.38 334.81C461.79 337.581 460.968 340.726 461 343.92C461 352.14 466.1 358.82 472.38 358.82C478.66 358.82 483.77 352.14 483.77 343.92C483.802 340.726 482.98 337.581 481.39 334.81C482.95 332.029 483.77 328.894 483.77 325.705C483.77 322.516 482.95 319.381 481.39 316.6C482.95 313.819 483.77 310.684 483.77 307.495C483.77 304.306 482.95 301.171 481.39 298.39L481.43 298.37Z" fill="#EB2441"/>
<path opacity="0.1" d="M472.42 285.97C478.705 285.97 483.8 279.299 483.8 271.07C483.8 262.841 478.705 256.17 472.42 256.17C466.135 256.17 461.04 262.841 461.04 271.07C461.04 279.299 466.135 285.97 472.42 285.97Z" fill="#EB2441"/>
<path opacity="0.1" d="M472.42 267.76C478.705 267.76 483.8 261.089 483.8 252.86C483.8 244.631 478.705 237.96 472.42 237.96C466.135 237.96 461.04 244.631 461.04 252.86C461.04 261.089 466.135 267.76 472.42 267.76Z" fill="#EB2441"/>
<path opacity="0.1" d="M429.82 128.23C428.261 126.253 426.844 124.168 425.58 121.99L455.48 117.08L423.14 117.32C420.044 110.566 418.358 103.251 418.186 95.8231C418.014 88.3952 419.36 81.0102 422.14 74.12L465.53 96.63L425.53 67.21C429.249 60.6725 434.28 54.975 440.307 50.4756C446.334 45.9762 453.226 42.7722 460.551 41.065C467.876 39.3578 475.475 39.1844 482.87 40.5556C490.265 41.9268 497.297 44.8131 503.522 49.0328C509.748 53.2526 515.034 58.7147 519.047 65.0758C523.06 71.4368 525.714 78.5593 526.842 85.9954C527.97 93.4316 527.547 101.021 525.6 108.286C523.653 115.55 520.225 122.334 515.53 128.21C517.955 131.29 520.04 134.623 521.75 138.15L482.92 158.37L524.31 144.48C527.219 153.072 527.939 162.254 526.404 171.194C524.869 180.134 521.128 188.55 515.52 195.68C521.846 203.722 525.782 213.381 526.877 223.555C527.972 233.728 526.182 244.004 521.712 253.207C517.242 262.411 510.272 270.171 501.6 275.601C492.927 281.03 482.902 283.909 472.67 283.909C462.438 283.909 452.413 281.03 443.74 275.601C435.068 270.171 428.098 262.411 423.628 253.207C419.158 244.004 417.368 233.728 418.463 223.555C419.558 213.381 423.494 203.722 429.82 195.68C422.26 186.07 418.149 174.198 418.149 161.97C418.149 149.743 422.26 137.87 429.82 128.26V128.23Z" fill="white"/>
<path opacity="0.1" d="M527.19 161.94C527.21 174.171 523.098 186.049 515.52 195.65C521.846 203.692 525.782 213.351 526.877 223.525C527.972 233.698 526.182 243.973 521.712 253.177C517.242 262.381 510.272 270.141 501.6 275.571C492.927 281 482.902 283.879 472.67 283.879C462.438 283.879 452.413 281 443.74 275.571C435.068 270.141 428.098 262.381 423.628 253.177C419.158 243.973 417.368 233.698 418.463 223.525C419.558 213.351 423.494 203.692 429.82 195.65C422.51 186.37 527.19 155.82 527.19 161.94Z" fill="#2B2B2B"/>
</g>
<g opacity="0.1">
<path opacity="0.1" d="M605.28 341.39C609.98 341.39 613.79 336.407 613.79 330.26C613.79 324.113 609.98 319.13 605.28 319.13C600.58 319.13 596.77 324.113 596.77 330.26C596.77 336.407 600.58 341.39 605.28 341.39Z" fill="#EB2441"/>
<path opacity="0.1" d="M612 282.63C613.183 280.561 613.794 278.214 613.77 275.83C613.77 269.68 609.96 264.69 605.27 264.69C600.58 264.69 596.76 269.69 596.76 275.83C596.734 278.215 597.349 280.563 598.54 282.63C597.373 284.708 596.76 287.052 596.76 289.435C596.76 291.818 597.373 294.162 598.54 296.24C597.373 298.318 596.76 300.662 596.76 303.045C596.76 305.428 597.373 307.772 598.54 309.85C597.349 311.917 596.734 314.265 596.76 316.65C596.76 322.8 600.57 327.79 605.27 327.79C609.97 327.79 613.77 322.79 613.77 316.65C613.794 314.266 613.183 311.919 612 309.85C613.158 307.769 613.765 305.426 613.765 303.045C613.765 300.663 613.158 298.321 612 296.24C613.158 294.159 613.765 291.816 613.765 289.435C613.765 287.053 613.158 284.711 612 282.63Z" fill="#EB2441"/>
<path opacity="0.1" d="M605.28 273.35C609.98 273.35 613.79 268.367 613.79 262.22C613.79 256.073 609.98 251.09 605.28 251.09C600.58 251.09 596.77 256.073 596.77 262.22C596.77 268.367 600.58 273.35 605.28 273.35Z" fill="#EB2441"/>
<path opacity="0.1" d="M605.28 259.74C609.98 259.74 613.79 254.757 613.79 248.61C613.79 242.463 609.98 237.48 605.28 237.48C600.58 237.48 596.77 242.463 596.77 248.61C596.77 254.757 600.58 259.74 605.28 259.74Z" fill="#EB2441"/>
<path opacity="0.1" d="M573.44 155.48C572.272 154.005 571.213 152.448 570.27 150.82L592.62 147.15L568.45 147.33C566.131 142.284 564.866 136.817 564.732 131.265C564.598 125.713 565.598 120.192 567.67 115.04L600.1 131.87L570.19 109.87C572.987 105.018 576.754 100.795 581.257 97.4642C585.759 94.1333 590.899 91.7662 596.357 90.5106C601.815 89.255 607.473 89.1379 612.978 90.1666C618.483 91.1952 623.717 93.3476 628.353 96.4894C632.989 99.6311 636.928 103.695 639.924 108.427C642.919 113.159 644.907 118.457 645.764 123.992C646.62 129.526 646.327 135.178 644.901 140.594C643.476 146.01 640.95 151.074 637.48 155.47C639.29 157.774 640.849 160.265 642.13 162.9L613.13 177.97L644.06 167.59C646.232 174.011 646.769 180.872 645.622 187.552C644.475 194.233 641.68 200.522 637.49 205.85C642.224 211.858 645.17 219.076 645.993 226.68C646.816 234.284 645.482 241.967 642.144 248.848C638.805 255.729 633.596 261.532 627.114 265.591C620.632 269.651 613.138 271.804 605.49 271.804C597.842 271.804 590.348 269.651 583.865 265.591C577.383 261.532 572.175 255.729 568.836 248.848C565.498 241.967 564.163 234.284 564.986 226.68C565.809 219.076 568.756 211.858 573.49 205.85C567.84 198.669 564.769 189.797 564.769 180.66C564.769 171.523 567.84 162.651 573.49 155.47L573.44 155.48Z" fill="white"/>
<path opacity="0.1" d="M646.2 180.67C646.213 189.809 643.141 198.685 637.48 205.86C642.214 211.868 645.16 219.086 645.983 226.69C646.806 234.294 645.472 241.977 642.133 248.858C638.795 255.739 633.586 261.542 627.104 265.601C620.622 269.661 613.128 271.814 605.48 271.814C597.831 271.814 590.338 269.661 583.855 265.601C577.373 261.542 572.165 255.739 568.826 248.858C565.488 241.977 564.153 234.294 564.976 226.69C565.799 219.086 568.746 211.868 573.48 205.86C568 198.93 646.2 176.1 646.2 180.67Z" fill="#2B2B2B"/>
</g>
<g opacity="0.1">
<path opacity="0.1" d="M1031.58 337.02C1037.86 337.02 1042.96 330.349 1042.96 322.12C1042.96 313.891 1037.86 307.22 1031.58 307.22C1025.29 307.22 1020.2 313.891 1020.2 322.12C1020.2 330.349 1025.29 337.02 1031.58 337.02Z" fill="#EB2441"/>
<path opacity="0.1" d="M1022.57 258.37C1020.98 255.598 1020.16 252.454 1020.19 249.26C1020.19 241.03 1025.29 234.36 1031.58 234.36C1037.87 234.36 1042.96 241.03 1042.96 249.26C1042.99 252.454 1042.17 255.598 1040.58 258.37C1042.14 261.151 1042.96 264.286 1042.96 267.475C1042.96 270.664 1042.14 273.799 1040.58 276.58C1042.14 279.361 1042.96 282.496 1042.96 285.685C1042.96 288.874 1042.14 292.009 1040.58 294.79C1042.17 297.561 1042.99 300.706 1042.96 303.9C1042.96 312.12 1037.86 318.8 1031.58 318.8C1025.3 318.8 1020.19 312.12 1020.19 303.9C1020.16 300.706 1020.98 297.561 1022.57 294.79C1021.01 292.009 1020.19 288.874 1020.19 285.685C1020.19 282.496 1021.01 279.361 1022.57 276.58C1021.01 273.799 1020.19 270.664 1020.19 267.475C1020.19 264.286 1021.01 261.151 1022.57 258.37Z" fill="#EB2441"/>
<path opacity="0.1" d="M1031.58 245.97C1037.86 245.97 1042.96 239.299 1042.96 231.07C1042.96 222.841 1037.86 216.17 1031.58 216.17C1025.29 216.17 1020.2 222.841 1020.2 231.07C1020.2 239.299 1025.29 245.97 1031.58 245.97Z" fill="#EB2441"/>
<path opacity="0.1" d="M1031.58 227.76C1037.86 227.76 1042.96 221.089 1042.96 212.86C1042.96 204.631 1037.86 197.96 1031.58 197.96C1025.29 197.96 1020.2 204.631 1020.2 212.86C1020.2 221.089 1025.29 227.76 1031.58 227.76Z" fill="#EB2441"/>
<path opacity="0.1" d="M1074.18 88.2301C1075.74 86.2533 1077.16 84.168 1078.42 81.9901L1048.52 77.0801L1080.86 77.3201C1083.96 70.5659 1085.64 63.2511 1085.81 55.8232C1085.99 48.3952 1084.64 41.0102 1081.86 34.1201L1038.47 56.6301L1078.47 27.2101C1074.75 20.6726 1069.72 14.975 1063.69 10.4756C1057.67 5.97615 1050.77 2.77216 1043.45 1.065C1036.12 -0.642167 1028.53 -0.81559 1021.13 0.555629C1013.74 1.92685 1006.7 4.81306 1000.48 9.03283C994.25 13.2526 988.966 18.7147 984.953 25.0758C980.94 31.4368 978.286 38.5593 977.158 45.9955C976.031 53.4316 976.453 61.0207 978.4 68.2856C980.347 75.5505 983.775 82.3341 988.47 88.2101C986.045 91.2903 983.96 94.6228 982.25 98.1501L1021.08 118.37L979.69 104.48C976.781 113.072 976.061 122.254 977.596 131.194C979.131 140.134 982.872 148.55 988.48 155.68C982.154 163.722 978.218 173.381 977.123 183.554C976.028 193.728 977.818 204.003 982.288 213.207C986.758 222.411 993.73 230.171 1002.4 235.601C1011.07 241.03 1021.1 243.909 1031.33 243.909C1041.56 243.909 1051.59 241.03 1060.26 235.601C1068.93 230.171 1075.9 222.411 1080.37 213.207C1084.84 204.003 1086.63 193.728 1085.54 183.554C1084.44 173.381 1080.51 163.722 1074.18 155.68C1081.74 146.07 1085.85 134.197 1085.85 121.97C1085.85 109.743 1081.74 97.8701 1074.18 88.2601V88.2301Z" fill="white"/>
<path opacity="0.1" d="M976.81 121.94C976.79 134.171 980.903 146.049 988.48 155.65C982.154 163.692 978.218 173.351 977.123 183.525C976.028 193.698 977.818 203.973 982.288 213.177C986.758 222.381 993.73 230.141 1002.4 235.571C1011.07 241 1021.1 243.879 1031.33 243.879C1041.56 243.879 1051.59 241 1060.26 235.571C1068.93 230.141 1075.9 222.381 1080.37 213.177C1084.84 203.973 1086.63 193.698 1085.54 183.525C1084.44 173.351 1080.51 163.692 1074.18 155.65C1081.49 146.37 976.81 115.82 976.81 121.94Z" fill="#2B2B2B"/>
</g>
<g opacity="0.1">
<path opacity="0.1" d="M921.72 335.39C926.42 335.39 930.23 330.407 930.23 324.26C930.23 318.113 926.42 313.13 921.72 313.13C917.02 313.13 913.21 318.113 913.21 324.26C913.21 330.407 917.02 335.39 921.72 335.39Z" fill="#EB2441"/>
<path opacity="0.1" d="M915 276.63C913.817 274.561 913.206 272.214 913.23 269.83C913.23 263.68 917.04 258.69 921.73 258.69C926.42 258.69 930.24 263.69 930.24 269.83C930.266 272.215 929.651 274.563 928.46 276.63C929.627 278.708 930.24 281.052 930.24 283.435C930.24 285.818 929.627 288.162 928.46 290.24C929.627 292.318 930.24 294.662 930.24 297.045C930.24 299.428 929.627 301.772 928.46 303.85C929.651 305.917 930.266 308.265 930.24 310.65C930.24 316.8 926.43 321.79 921.73 321.79C917.03 321.79 913.23 316.79 913.23 310.65C913.206 308.266 913.817 305.919 915 303.85C913.842 301.769 913.235 299.426 913.235 297.045C913.235 294.663 913.842 292.321 915 290.24C913.842 288.159 913.235 285.816 913.235 283.435C913.235 281.053 913.842 278.711 915 276.63Z" fill="#EB2441"/>
<path opacity="0.1" d="M921.72 267.35C926.42 267.35 930.23 262.367 930.23 256.22C930.23 250.073 926.42 245.09 921.72 245.09C917.02 245.09 913.21 250.073 913.21 256.22C913.21 262.367 917.02 267.35 921.72 267.35Z" fill="#EB2441"/>
<path opacity="0.1" d="M921.72 253.74C926.42 253.74 930.23 248.757 930.23 242.61C930.23 236.463 926.42 231.48 921.72 231.48C917.02 231.48 913.21 236.463 913.21 242.61C913.21 248.757 917.02 253.74 921.72 253.74Z" fill="#EB2441"/>
<path opacity="0.1" d="M953.56 149.48C954.728 148.005 955.787 146.448 956.73 144.82L934.38 141.15L958.55 141.33C960.869 136.284 962.134 130.817 962.268 125.265C962.402 119.713 961.402 114.192 959.33 109.04L926.9 125.87L956.81 103.87C954.013 99.0183 950.245 94.7951 945.743 91.4642C941.241 88.1333 936.101 85.7662 930.643 84.5106C925.185 83.255 919.527 83.1379 914.022 84.1666C908.517 85.1952 903.283 87.3476 898.647 90.4894C894.01 93.6311 890.072 97.6948 887.076 102.427C884.081 107.159 882.093 112.457 881.236 117.992C880.38 123.526 880.673 129.178 882.099 134.594C883.524 140.01 886.05 145.074 889.52 149.47C887.71 151.774 886.151 154.265 884.87 156.9L913.87 171.97L883 161.6C880.827 168.021 880.29 174.882 881.438 181.562C882.585 188.243 885.38 194.532 889.57 199.86C884.836 205.868 881.889 213.086 881.066 220.69C880.244 228.294 881.578 235.977 884.916 242.858C888.255 249.739 893.463 255.542 899.946 259.601C906.428 263.661 913.922 265.814 921.57 265.814C929.218 265.814 936.712 263.661 943.194 259.601C949.676 255.542 954.885 249.739 958.224 242.858C961.562 235.977 962.896 228.294 962.073 220.69C961.25 213.086 958.304 205.868 953.57 199.86C959.22 192.679 962.291 183.807 962.291 174.67C962.291 165.533 959.22 156.661 953.57 149.48H953.56Z" fill="white"/>
<path opacity="0.1" d="M880.8 174.67C880.786 183.809 883.859 192.685 889.52 199.86C884.786 205.868 881.839 213.086 881.016 220.69C880.193 228.294 881.528 235.977 884.866 242.858C888.205 249.739 893.413 255.542 899.895 259.601C906.377 263.661 913.871 265.814 921.52 265.814C929.168 265.814 936.662 263.661 943.144 259.601C949.626 255.542 954.835 249.739 958.173 242.858C961.512 235.977 962.846 228.294 962.023 220.69C961.2 213.086 958.254 205.868 953.52 199.86C959 192.93 880.8 170.1 880.8 174.67Z" fill="#2B2B2B"/>
</g>
<g opacity="0.1">
<path opacity="0.1" d="M54.59 337.02C60.875 337.02 65.97 330.349 65.97 322.12C65.97 313.891 60.875 307.22 54.59 307.22C48.305 307.22 43.21 313.891 43.21 322.12C43.21 330.349 48.305 337.02 54.59 337.02Z" fill="#EB2441"/>
<path opacity="0.1" d="M63.59 258.37C65.1775 255.598 65.999 252.454 65.97 249.26C65.97 241.03 60.87 234.36 54.59 234.36C48.31 234.36 43.21 241.03 43.21 249.26C43.1779 252.453 43.9959 255.597 45.58 258.37C44.0254 261.153 43.2093 264.287 43.2093 267.475C43.2093 270.663 44.0254 273.797 45.58 276.58C44.0254 279.363 43.2093 282.497 43.2093 285.685C43.2093 288.873 44.0254 292.007 45.58 294.79C43.9927 297.561 43.1745 300.706 43.21 303.9C43.21 312.12 48.3 318.8 54.59 318.8C60.88 318.8 66 312.14 66 303.92C66.0319 300.726 65.2103 297.581 63.62 294.81C65.1801 292.029 65.9994 288.894 65.9994 285.705C65.9994 282.516 65.1801 279.381 63.62 276.6C65.1801 273.819 65.9994 270.684 65.9994 267.495C65.9994 264.306 65.1801 261.171 63.62 258.39L63.59 258.37Z" fill="#EB2441"/>
<path opacity="0.1" d="M54.59 245.97C60.875 245.97 65.97 239.299 65.97 231.07C65.97 222.841 60.875 216.17 54.59 216.17C48.305 216.17 43.21 222.841 43.21 231.07C43.21 239.299 48.305 245.97 54.59 245.97Z" fill="#EB2441"/>
<path opacity="0.1" d="M54.59 227.76C60.875 227.76 65.97 221.089 65.97 212.86C65.97 204.631 60.875 197.96 54.59 197.96C48.305 197.96 43.21 204.631 43.21 212.86C43.21 221.089 48.305 227.76 54.59 227.76Z" fill="#EB2441"/>
<path opacity="0.1" d="M12 88.2301C10.4438 86.2509 9.027 84.1658 7.76 81.9901L37.67 77.0801L5.3 77.3701C2.20381 70.616 0.518186 63.3012 0.346236 55.8732C0.174296 48.4452 1.51965 41.0603 4.3 34.1701L47.7 56.6801L7.7 27.2601C11.4281 20.742 16.4625 15.0644 22.4876 10.583C28.5126 6.10157 35.3984 2.91308 42.7134 1.21736C50.0283 -0.478363 57.6147 -0.644766 64.997 0.72859C72.3793 2.10195 79.3983 4.98545 85.614 9.19835C91.8298 13.4113 97.108 18.8628 101.119 25.2111C105.129 31.5594 107.785 38.6677 108.919 46.0904C110.054 53.5131 109.643 61.0902 107.713 68.3467C105.782 75.6032 102.373 82.3826 97.7 88.2601C100.124 91.3403 102.21 94.6729 103.92 98.2001L65.08 118.37L106.48 104.48C109.382 113.073 110.097 122.255 108.561 131.194C107.024 140.133 103.285 148.549 97.68 155.68C104.006 163.722 107.942 173.381 109.037 183.554C110.132 193.728 108.342 204.003 103.872 213.207C99.402 222.411 92.4324 230.171 83.7598 235.601C75.0872 241.03 65.0618 243.909 54.83 243.909C44.5981 243.909 34.5728 241.03 25.9002 235.601C17.2276 230.171 10.2579 222.411 5.7879 213.207C1.3179 204.003 -0.471914 193.728 0.623086 183.554C1.7181 173.381 5.6537 163.722 11.98 155.68C4.4197 146.07 0.309326 134.197 0.309326 121.97C0.309326 109.743 4.4197 97.8701 11.98 88.2601L12 88.2301Z" fill="white"/>
<path opacity="0.1" d="M109.35 121.94C109.37 134.171 105.257 146.049 97.68 155.65C104.006 163.692 107.942 173.351 109.037 183.525C110.132 193.698 108.342 203.973 103.872 213.177C99.402 222.381 92.4323 230.141 83.7598 235.571C75.0872 241 65.0618 243.879 54.83 243.879C44.5981 243.879 34.5727 241 25.9002 235.571C17.2276 230.141 10.2579 222.381 5.7879 213.177C1.31788 203.973 -0.47193 193.698 0.62308 183.525C1.71808 173.351 5.6537 163.692 11.98 155.65C4.67 146.37 109.35 115.82 109.35 121.94Z" fill="#2B2B2B"/>
</g>
<g opacity="0.1">
<path opacity="0.1" d="M164.44 335.39C169.14 335.39 172.95 330.407 172.95 324.26C172.95 318.113 169.14 313.13 164.44 313.13C159.74 313.13 155.93 318.113 155.93 324.26C155.93 330.407 159.74 335.39 164.44 335.39Z" fill="#EB2441"/>
<path opacity="0.1" d="M171.17 276.63C172.353 274.561 172.964 272.214 172.94 269.83C172.94 263.68 169.14 258.69 164.44 258.69C159.74 258.69 155.93 263.69 155.93 269.83C155.909 272.214 156.523 274.561 157.71 276.63C156.543 278.708 155.93 281.052 155.93 283.435C155.93 285.818 156.543 288.162 157.71 290.24C156.543 292.318 155.93 294.662 155.93 297.045C155.93 299.428 156.543 301.772 157.71 303.85C156.523 305.918 155.909 308.265 155.93 310.65C155.93 316.8 159.74 321.79 164.44 321.79C169.14 321.79 172.94 316.79 172.94 310.65C172.964 308.266 172.353 305.919 171.17 303.85C172.328 301.769 172.935 299.426 172.935 297.045C172.935 294.663 172.328 292.321 171.17 290.24C172.328 288.159 172.935 285.816 172.935 283.435C172.935 281.053 172.328 278.711 171.17 276.63Z" fill="#EB2441"/>
<path opacity="0.1" d="M164.44 267.35C169.14 267.35 172.95 262.367 172.95 256.22C172.95 250.073 169.14 245.09 164.44 245.09C159.74 245.09 155.93 250.073 155.93 256.22C155.93 262.367 159.74 267.35 164.44 267.35Z" fill="#EB2441"/>
<path opacity="0.1" d="M164.44 253.74C169.14 253.74 172.95 248.757 172.95 242.61C172.95 236.463 169.14 231.48 164.44 231.48C159.74 231.48 155.93 236.463 155.93 242.61C155.93 248.757 159.74 253.74 164.44 253.74Z" fill="#EB2441"/>
<path opacity="0.1" d="M132.6 149.48C131.436 148.003 130.376 146.446 129.43 144.82L151.78 141.15L127.61 141.33C125.291 136.284 124.026 130.817 123.892 125.265C123.758 119.713 124.758 114.192 126.83 109.04L159.26 125.87L129.35 103.87C132.147 99.0183 135.914 94.7951 140.417 91.4642C144.919 88.1333 150.059 85.7662 155.517 84.5106C160.975 83.255 166.633 83.1379 172.138 84.1666C177.643 85.1952 182.877 87.3476 187.513 90.4894C192.149 93.6311 196.088 97.6948 199.084 102.427C202.079 107.159 204.067 112.457 204.924 117.992C205.78 123.526 205.487 129.178 204.061 134.594C202.636 140.01 200.11 145.074 196.64 149.47C198.457 151.769 200.016 154.261 201.29 156.9L172.29 171.97L203.22 161.59C205.392 168.011 205.929 174.872 204.782 181.552C203.635 188.233 200.84 194.522 196.65 199.85C201.384 205.858 204.33 213.076 205.153 220.68C205.976 228.284 204.642 235.967 201.304 242.848C197.965 249.729 192.757 255.532 186.274 259.591C179.792 263.651 172.298 265.804 164.65 265.804C157.002 265.804 149.508 263.651 143.025 259.591C136.543 255.532 131.335 249.729 127.996 242.848C124.658 235.967 123.324 228.284 124.146 220.68C124.969 213.076 127.916 205.858 132.65 199.85C127 192.669 123.929 183.797 123.929 174.66C123.929 165.523 127 156.651 132.65 149.47L132.6 149.48Z" fill="white"/>
<path opacity="0.1" d="M205.36 174.67C205.374 183.809 202.301 192.685 196.64 199.86C201.374 205.868 204.32 213.086 205.143 220.69C205.966 228.294 204.632 235.977 201.294 242.858C197.955 249.739 192.747 255.542 186.264 259.601C179.782 263.661 172.288 265.814 164.64 265.814C156.992 265.814 149.498 263.661 143.016 259.601C136.533 255.542 131.325 249.739 127.986 242.858C124.648 235.977 123.314 228.294 124.137 220.69C124.959 213.086 127.906 205.868 132.64 199.86C127.14 192.93 205.36 170.1 205.36 174.67Z" fill="#2B2B2B"/>
</g>
<path d="M772.73 338.14C827.936 338.14 872.69 293.386 872.69 238.18C872.69 182.974 827.936 138.22 772.73 138.22C717.524 138.22 672.77 182.974 672.77 238.18C672.77 293.386 717.524 338.14 772.73 338.14Z" fill="#EB2441"/>
<path d="M815.64 263.96C812.16 260.48 803.79 255.23 799.64 253.27C794.85 250.97 793.09 251.01 789.7 253.46C786.88 255.46 785.05 257.39 781.81 256.68C778.57 255.97 772.15 251.13 765.94 244.94C759.73 238.75 754.91 232.37 754.22 229.08C753.53 225.79 755.43 224 757.45 221.18C759.89 217.79 759.96 216.03 757.64 211.24C755.64 207.09 750.45 198.74 746.94 195.24C743.43 191.74 742.67 192.51 740.75 193.24C738.774 194.068 736.876 195.072 735.08 196.24C731.6 198.57 729.65 200.51 728.28 203.43C726.91 206.35 725.36 211.77 733.33 225.96C739.209 236.815 746.656 246.745 755.43 255.43C764.144 264.224 774.108 271.684 785 277.57C799.18 285.57 804.61 283.98 807.53 282.62C810.45 281.26 812.39 279.33 814.71 275.82C815.88 274.025 816.884 272.127 817.71 270.15C818.37 268.23 819.15 267.45 815.64 263.96Z" fill="white"/>
<path opacity="0.1" d="M772.73 138.23C752.948 138.22 733.607 144.078 717.154 155.062C700.702 166.047 687.877 181.664 680.302 199.939C672.727 218.213 670.742 238.324 674.599 257.727C678.456 277.13 687.981 294.952 701.969 308.941C715.958 322.929 733.78 332.454 753.183 336.311C772.586 340.168 792.697 338.183 810.971 330.608C829.246 323.033 844.863 310.208 855.848 293.756C866.832 277.303 872.69 257.962 872.68 238.18C872.667 211.676 862.132 186.261 843.391 167.519C824.649 148.778 799.234 138.243 772.73 138.23ZM772.73 324.85C755.588 324.85 738.831 319.767 724.579 310.243C710.326 300.72 699.217 287.184 692.657 271.347C686.097 255.51 684.381 238.084 687.725 221.272C691.069 204.459 699.324 189.016 711.445 176.895C723.566 164.774 739.009 156.52 755.821 153.175C772.634 149.831 790.06 151.548 805.897 158.107C821.734 164.667 835.27 175.776 844.793 190.029C854.317 204.282 859.4 221.038 859.4 238.18C859.4 249.562 857.158 260.832 852.803 271.347C848.447 281.862 842.063 291.417 834.015 299.465C825.967 307.513 816.412 313.897 805.897 318.253C795.382 322.608 784.112 324.85 772.73 324.85Z" fill="#2B2B2B"/>
<path d="M543.08 489.97C598.286 489.97 643.04 445.216 643.04 390.01C643.04 334.804 598.286 290.05 543.08 290.05C487.874 290.05 443.12 334.804 443.12 390.01C443.12 445.216 487.874 489.97 543.08 489.97Z" fill="#EB2441"/>
<path d="M599.93 359.81L570 390.26C569.947 390.31 569.906 390.371 569.877 390.438C569.848 390.505 569.834 390.577 569.834 390.65C569.834 390.723 569.848 390.795 569.877 390.862C569.906 390.929 569.947 390.99 570 391.04L591 413.37C591.502 413.876 591.844 414.52 591.982 415.219C592.12 415.919 592.049 416.644 591.776 417.303C591.504 417.962 591.043 418.526 590.451 418.924C589.859 419.322 589.163 419.536 588.45 419.54C587.49 419.538 586.57 419.157 585.89 418.48L565 396.23C564.893 396.125 564.75 396.066 564.6 396.066C564.45 396.066 564.307 396.125 564.2 396.23L559.11 401.37C557.026 403.501 554.537 405.195 551.789 406.35C549.042 407.506 546.091 408.101 543.11 408.1C540.073 408.086 537.069 407.467 534.274 406.279C531.478 405.09 528.948 403.357 526.83 401.18L521.94 396.18C521.833 396.075 521.69 396.016 521.54 396.016C521.39 396.016 521.247 396.075 521.14 396.18L500.3 418.38C499.965 418.716 499.566 418.982 499.128 419.164C498.69 419.346 498.22 419.44 497.745 419.44C497.27 419.44 496.8 419.346 496.362 419.164C495.924 418.982 495.525 418.716 495.19 418.38C494.853 418.045 494.585 417.647 494.403 417.209C494.22 416.77 494.126 416.3 494.126 415.825C494.126 415.35 494.22 414.88 494.403 414.441C494.585 414.003 494.853 413.605 495.19 413.27L516.11 390.99C516.203 390.881 516.254 390.743 516.254 390.6C516.254 390.457 516.203 390.319 516.11 390.21L486.18 359.76C486.103 359.683 486.005 359.63 485.898 359.609C485.791 359.587 485.68 359.598 485.579 359.64C485.478 359.682 485.392 359.752 485.332 359.843C485.272 359.934 485.24 360.041 485.24 360.15V421.08C485.248 423.435 486.187 425.692 487.853 427.358C489.518 429.023 491.775 429.962 494.13 429.97H592C594.355 429.962 596.612 429.023 598.277 427.358C599.943 425.692 600.882 423.435 600.89 421.08V360.2C600.895 360.087 600.865 359.975 600.803 359.879C600.742 359.783 600.653 359.709 600.548 359.667C600.442 359.624 600.327 359.615 600.216 359.64C600.105 359.666 600.006 359.725 599.93 359.81Z" fill="white"/>
<path d="M543.08 400.87C545.109 400.89 547.121 400.502 548.997 399.729C550.873 398.956 552.574 397.814 554 396.37L597.59 352C596.043 350.718 594.099 350.012 592.09 350H494.15C492.14 350.007 490.195 350.714 488.65 352L532.25 396.37C533.663 397.805 535.35 398.943 537.21 399.716C539.07 400.489 541.066 400.881 543.08 400.87Z" fill="white"/>
<path opacity="0.1" d="M541.82 290.06C522.038 290.05 502.697 295.908 486.244 306.892C469.792 317.877 456.967 333.494 449.392 351.769C441.817 370.043 439.832 390.154 443.689 409.557C447.546 428.96 457.071 446.783 471.059 460.771C485.048 474.759 502.871 484.284 522.273 488.141C541.676 491.998 561.787 490.013 580.062 482.438C598.336 474.863 613.954 462.038 624.938 445.586C635.922 429.133 641.78 409.792 641.77 390.01C641.757 363.506 631.222 338.091 612.481 319.349C593.739 300.608 568.324 290.073 541.82 290.06ZM541.82 476.68C524.678 476.68 507.922 471.597 493.669 462.074C479.416 452.55 468.307 439.014 461.747 423.177C455.188 407.34 453.471 389.914 456.815 373.102C460.16 356.289 468.414 340.846 480.535 328.725C492.656 316.604 508.099 308.35 524.912 305.005C541.724 301.661 559.15 303.378 574.987 309.937C590.824 316.497 604.36 327.606 613.884 341.859C623.407 356.112 628.49 372.868 628.49 390.01C628.49 412.996 619.359 435.041 603.105 451.295C586.851 467.549 564.806 476.68 541.82 476.68Z" fill="#2B2B2B"/>
<path d="M305.85 415.32C361.056 415.32 405.81 370.566 405.81 315.36C405.81 260.154 361.056 215.4 305.85 215.4C250.644 215.4 205.89 260.154 205.89 315.36C205.89 370.566 250.644 415.32 305.85 415.32Z" fill="#EB2441"/>
<path d="M305.85 267.53L266 359.47L269.72 363.19L305.86 347.25L342 363.19L345.72 359.47L305.85 267.53Z" fill="white"/>
<path opacity="0.1" d="M305.85 215.37C286.07 215.36 266.731 221.217 250.279 232.199C233.828 243.181 221.003 258.795 213.426 277.067C205.85 295.339 203.862 315.447 207.715 334.848C211.568 354.25 221.088 372.073 235.072 386.063C249.055 400.053 266.873 409.582 286.273 413.445C305.672 417.307 325.781 415.33 344.057 407.763C362.332 400.195 377.953 387.378 388.943 370.932C399.934 354.486 405.8 335.15 405.8 315.37C405.8 288.857 395.271 263.429 376.528 244.677C357.785 225.925 332.363 215.383 305.85 215.37ZM305.85 401.99C288.706 401.99 271.947 396.906 257.694 387.38C243.44 377.854 232.331 364.315 225.773 348.476C219.214 332.636 217.501 315.207 220.849 298.393C224.197 281.579 232.457 266.136 244.583 254.017C256.709 241.898 272.157 233.648 288.972 230.309C305.788 226.971 323.216 228.694 339.052 235.262C354.888 241.829 368.42 252.946 377.938 267.205C387.455 281.465 392.53 298.226 392.52 315.37C392.517 338.355 383.385 360.397 367.131 376.649C350.878 392.9 328.835 402.03 305.85 402.03V401.99Z" fill="#2B2B2B"/>
<path d="M781.93 441.25C781.023 439.037 780.093 436.83 779.14 434.63C778.355 432.483 777.201 430.49 775.73 428.74C775.171 428.11 774.491 427.6 773.73 427.24C772.893 426.931 772.012 426.756 771.12 426.72C769.76 426.549 768.387 426.512 767.02 426.61C766.49 426.45 765.89 426.24 765.3 426C768.259 425.223 770.89 423.515 772.806 421.13C774.721 418.745 775.82 415.807 775.94 412.75C775.94 412.55 775.94 412.34 775.94 412.14C775.948 410.269 775.587 408.414 774.878 406.682C774.17 404.95 773.126 403.375 771.809 402.046C770.491 400.717 768.925 399.661 767.199 398.938C765.473 398.214 763.621 397.838 761.75 397.83C759.116 397.825 756.534 398.563 754.3 399.96C751.351 399.291 748.262 399.642 745.537 400.955C742.813 402.268 740.614 404.466 739.3 407.19C737.644 408.775 736.335 410.686 735.457 412.804C734.579 414.921 734.151 417.198 734.2 419.49C734.2 419.7 734.2 419.92 734.2 420.12C734.46 427.89 739.48 434.12 745.82 434.75C745.142 435.055 744.521 435.47 743.98 435.98C742.04 437.85 741.72 440.82 741.51 443.52L741.36 445.52L738 446.72C737.893 446.758 737.799 446.825 737.727 446.913C737.656 447.001 737.61 447.107 737.594 447.22C737.579 447.332 737.594 447.446 737.639 447.551C737.685 447.655 737.757 447.745 737.85 447.81L741.06 450.1C741.06 450.29 741.06 450.48 741.06 450.67C741.06 450.86 741.06 451.1 741.12 451.32C740.572 451.803 740.147 452.41 739.88 453.09C739.567 454.14 739.469 455.242 739.59 456.33L739.71 459.12C739.694 461.22 739.981 463.312 740.56 465.33C740.98 466.57 742.8 469.56 744.11 469.58C742.9 475.08 742.58 486.68 742.58 486.68C742.43 486.83 742.85 486.97 743.58 487.09C744.3 492.61 746.65 508.09 750.82 514.9C751.476 517.12 752.001 519.378 752.39 521.66C752.39 521.66 753.58 536.37 755.15 540.74C756.49 544.46 757.55 553.64 757.84 556.3C757.568 556.37 757.321 556.513 757.125 556.714C756.929 556.916 756.793 557.167 756.73 557.44C755.94 559.82 750.82 563.44 750.82 563.44C749.251 564.224 747.769 565.173 746.4 566.27C744.79 567.72 744.85 569.03 752 568.21C765.8 566.62 768.16 562.21 768.16 562.21C768.16 562.21 767.94 561.47 767.61 560.51C767.189 559.016 766.581 557.582 765.8 556.24C765.6 556.05 765.4 556.37 765.16 556.87C764.119 550.49 763.803 544.012 764.22 537.56C764.22 537.56 764.61 530.8 762.64 526.03C762.202 523.532 762.202 520.978 762.64 518.48C763.43 515.3 759.49 499.79 759.49 499.79L757.23 488.37C757.538 488.76 757.754 489.215 757.86 489.7L757.92 489.93L757.98 490.26C758.003 490.377 758.058 490.484 758.14 490.57C759.68 496.97 763.9 514.7 763.9 517.3C763.9 520.48 767.84 528.43 767.84 528.43C767.84 528.43 769.41 541.55 772.17 546.71C774.27 550.64 774.32 556.4 774.22 558.94C774.22 558.94 773.75 562.21 772.96 563C772.332 563.781 771.829 564.655 771.47 565.59L771.38 565.78C771.38 565.78 770.2 568.17 770.99 568.57C773.995 569.749 777.247 570.158 780.45 569.76C780.45 569.76 782.03 567.76 782.03 566.98C781.997 566.504 781.937 566.03 781.85 565.56C781.56 563.68 781.02 560.72 781.01 560.69C781.34 559.41 780.01 555.85 780.01 555.85L779.61 544.72C780.342 537.184 779.4 529.579 776.85 522.45C776.85 522.45 774.85 515.3 775.28 513.31C775.71 511.32 774.49 490.25 774.49 490.25L774.37 489.95C774.263 488.46 774.304 486.963 774.49 485.48C774.88 480.71 773.31 470.77 772.91 470.38C772.584 469.312 772.396 468.206 772.35 467.09C772.44 466.26 772.71 463.83 773.08 460.81C776.968 460.677 780.847 460.343 784.7 459.81C785.072 459.81 785.43 459.667 785.7 459.41C785.858 459.17 785.938 458.887 785.93 458.6C786.39 452.61 784.2 446.79 781.93 441.25ZM774 453.86C774.41 451.01 774.85 448.25 775.29 446.2L775.35 446.38C776.107 448.441 776.742 450.544 777.25 452.68C776.2 453.16 775.113 453.555 774 453.86Z" fill="url(#paint0_linear)"/>
<path d="M743.37 486.05C743.37 486.05 745.73 507.28 750.84 515.53C751.497 517.723 752.021 519.954 752.41 522.21C752.41 522.21 753.59 536.75 755.16 541.07C756.73 545.39 757.91 557.19 757.91 557.19C757.91 557.19 763.41 563.47 765.38 558.37C764.143 551.632 763.746 544.766 764.2 537.93C764.2 537.93 764.59 531.25 762.63 526.53C762.192 524.063 762.192 521.537 762.63 519.07C763.41 515.92 759.48 500.6 759.48 500.6L756.34 485.27L743.37 486.05Z" fill="#BE6F72"/>
<path d="M768.13 562.3C768.13 562.3 765.77 566.62 752.02 568.19C744.88 569 744.83 567.71 746.44 566.27C747.805 565.185 749.279 564.247 750.84 563.47C750.84 563.47 755.95 559.94 756.73 557.58C757.51 555.22 760.27 557.19 760.27 557.19C764.2 563.08 764.99 555.61 765.77 556.4C766.553 557.719 767.161 559.134 767.58 560.61C767.91 561.56 768.13 562.3 768.13 562.3Z" fill="#2F2E41"/>
<path opacity="0.1" d="M768.13 562.3C768.13 562.3 765.77 566.62 752.02 568.19C744.88 569 744.83 567.71 746.44 566.27C747.56 566.98 749.82 567.27 754.37 565.44C760.92 562.76 765.67 561.21 767.58 560.61C767.91 561.56 768.13 562.3 768.13 562.3Z" fill="#2B2B2B"/>
<path opacity="0.1" d="M764.2 537.93C764.2 537.93 764.59 531.25 762.63 526.53C762.192 524.063 762.192 521.537 762.63 519.07C763.41 515.92 759.48 500.6 759.48 500.6L756.34 485.27L753.62 485.43L756.73 500.6C756.73 500.6 760.66 515.92 759.88 519.07C759.442 521.537 759.442 524.063 759.88 526.53C761.88 531.25 761.45 537.93 761.45 537.93C760.996 544.766 761.393 551.632 762.63 558.37C762.417 559.01 762.021 559.573 761.49 559.99C762.95 560.65 764.49 560.62 765.38 558.37C764.143 551.632 763.746 544.766 764.2 537.93Z" fill="#2B2B2B"/>
<path d="M761.64 399.79C759.018 399.785 756.447 400.516 754.22 401.9C751.28 401.221 748.196 401.558 745.472 402.857C742.748 404.155 740.544 406.338 739.22 409.05C737.571 410.61 736.266 412.498 735.389 414.592C734.513 416.686 734.084 418.94 734.13 421.21C734.13 429.57 739.76 436.34 746.7 436.34C751.7 436.34 756.08 432.78 758.09 427.63C759.245 427.936 760.435 428.091 761.63 428.09C765.383 428.09 768.982 426.599 771.636 423.946C774.289 421.292 775.78 417.693 775.78 413.94C775.78 410.187 774.289 406.588 771.636 403.935C768.982 401.281 765.383 399.79 761.63 399.79H761.64Z" fill="#E8E8F0"/>
<path d="M773.24 488.02L774.42 491.16C774.42 491.16 775.6 511.99 775.2 513.96C774.8 515.93 776.78 522.96 776.78 522.96C779.321 529.998 780.261 537.513 779.53 544.96L779.92 555.96C779.92 555.96 781.49 560.28 780.71 561.07C779.93 561.86 774 560.37 774 560.37C774 560.37 774.79 552.12 772 547.01C769.21 541.9 767.68 528.93 767.68 528.93C767.68 528.93 763.75 521.07 763.75 517.93C763.75 514.79 757.46 489.24 757.46 489.24L773.24 488.02Z" fill="#BE6F72"/>
<path d="M742.58 487.63C742.58 487.63 742.98 473.48 744.58 469.16C745.394 467.141 745.981 465.038 746.33 462.89C746.33 462.89 770.12 467.19 772.09 465.62C772.09 465.62 772.48 471.12 772.88 471.51C773.28 471.9 774.88 481.73 774.45 486.45C774.02 491.17 774.45 491.16 774.45 491.16C774.45 491.16 758.33 493.52 757.94 491.16C757.55 488.8 756.37 488.81 756.37 488.81C756.37 488.81 741.8 488.37 742.58 487.63Z" fill="#2F2E41"/>
<g opacity="0.1">
<path opacity="0.1" d="M755.55 487.63C755.55 487.63 745.61 487.36 742.61 486.82C742.61 487.33 742.61 487.63 742.61 487.63C741.83 488.41 756.37 488.81 756.37 488.81C756.568 488.828 756.756 488.905 756.91 489.03C756.38 487.63 755.55 487.63 755.55 487.63Z" fill="#2B2B2B"/>
<path opacity="0.1" d="M772.85 471.51C772.45 471.12 772.06 465.62 772.06 465.62C771.856 465.747 771.628 465.828 771.39 465.86C771.53 467.52 771.8 470.07 772.06 470.33C772.32 470.59 774.06 480.55 773.63 485.27C773.2 489.99 773.63 489.98 773.63 489.98C773.63 489.98 760.88 491.85 757.79 490.6C757.79 490.77 757.88 490.96 757.91 491.16C758.3 493.52 774.42 491.16 774.42 491.16C774.42 491.16 774.02 491.16 774.42 486.45C774.82 481.74 773.24 471.91 772.85 471.51Z" fill="#2B2B2B"/>
</g>
<path d="M759.9 424.55C760.238 425.307 760.753 425.972 761.4 426.49C761.817 426.8 762.299 427.008 762.81 427.1C761.93 427.61 760.97 427.99 760.09 428.5C758.706 429.43 757.371 430.432 756.09 431.5C754.78 432.553 753.177 433.175 751.5 433.28C752.088 432.487 752.458 431.552 752.57 430.571C752.682 429.59 752.534 428.596 752.14 427.69C751.78 427.096 751.542 426.437 751.44 425.75C751.44 424.62 752.44 423.75 753.37 423.15C754.12 422.64 754.89 422.15 755.67 421.66C756.28 421.28 757.2 420.48 757.97 420.51C758.74 420.54 758.83 421.22 758.97 421.92C759.168 422.832 759.481 423.716 759.9 424.55Z" fill="#BE6F72"/>
<path opacity="0.1" d="M759.9 424.55C760.238 425.307 760.753 425.972 761.4 426.49C761.817 426.8 762.299 427.008 762.81 427.1C761.93 427.61 760.97 427.99 760.09 428.5C758.706 429.43 757.371 430.432 756.09 431.5C754.78 432.553 753.177 433.175 751.5 433.28C752.088 432.487 752.458 431.552 752.57 430.571C752.682 429.59 752.534 428.596 752.14 427.69C751.78 427.096 751.542 426.437 751.44 425.75C751.44 424.62 752.44 423.75 753.37 423.15C754.12 422.64 754.89 422.15 755.67 421.66C756.28 421.28 757.2 420.48 757.97 420.51C758.74 420.54 758.83 421.22 758.97 421.92C759.168 422.832 759.481 423.716 759.9 424.55Z" fill="#2B2B2B"/>
<path d="M769.11 447.74C774.103 447.74 778.15 443.693 778.15 438.7C778.15 433.707 774.103 429.66 769.11 429.66C764.117 429.66 760.07 433.707 760.07 438.7C760.07 443.693 764.117 447.74 769.11 447.74Z" fill="#BE6F72"/>
<path d="M781.88 567.01C781.88 567.8 780.31 569.76 780.31 569.76C777.117 570.152 773.878 569.747 770.88 568.58C770.09 568.19 771.27 565.83 771.27 565.83L771.36 565.64C771.72 564.714 772.223 563.851 772.85 563.08C773.63 562.3 774.1 559.08 774.1 559.08C776.54 555.08 780.87 560.81 780.87 560.81C780.87 560.81 781.42 563.81 781.71 565.63C781.81 566.28 781.88 566.81 781.88 567.01Z" fill="#2F2E41"/>
<path opacity="0.1" d="M781.88 567.01C781.88 567.8 780.31 569.76 780.31 569.76C777.117 570.152 773.878 569.747 770.88 568.58C770.09 568.19 771.27 565.83 771.27 565.83L771.36 565.64C774.038 566.884 776.969 567.486 779.92 567.4L781.71 565.61C781.81 566.28 781.88 566.81 781.88 567.01Z" fill="#2B2B2B"/>
<path d="M751.03 428.67C755.912 428.67 759.87 424.712 759.87 419.83C759.87 414.948 755.912 410.99 751.03 410.99C746.148 410.99 742.19 414.948 742.19 419.83C742.19 424.712 746.148 428.67 751.03 428.67Z" fill="#BE6F72"/>
<path d="M743.9 437.51C741.96 439.36 741.64 442.29 741.44 444.96L741.14 448.87C741.032 449.923 741.008 450.983 741.07 452.04C741.07 452.69 741.23 453.35 741.29 454.04C741.35 454.73 741.37 455.6 741.38 456.39V462.17C741.285 463.363 741.506 464.56 742.02 465.64C742.294 466.163 742.755 466.563 743.31 466.763C743.865 466.963 744.475 466.948 745.02 466.72C745.641 466.241 746.079 465.563 746.26 464.8C747.235 462.455 747.907 459.995 748.26 457.48C748.34 456.61 748.35 455.74 748.43 454.87C748.51 454 748.66 453.09 748.79 452.21C749.35 448.53 749.6 444.81 749.85 441.1C749.92 440 750.91 435.67 749.47 435.19C748.77 434.96 747.32 435.68 746.65 435.92C745.636 436.259 744.7 436.8 743.9 437.51Z" fill="#BE6F72"/>
<path opacity="0.1" d="M743.9 437.51C741.96 439.36 741.64 442.29 741.44 444.96L741.14 448.87C741.032 449.923 741.008 450.983 741.07 452.04C741.07 452.69 741.23 453.35 741.29 454.04C741.35 454.73 741.37 455.6 741.38 456.39V462.17C741.285 463.363 741.506 464.56 742.02 465.64C742.294 466.163 742.755 466.563 743.31 466.763C743.865 466.963 744.475 466.948 745.02 466.72C745.641 466.241 746.079 465.563 746.26 464.8C747.235 462.455 747.907 459.995 748.26 457.48C748.34 456.61 748.35 455.74 748.43 454.87C748.51 454 748.66 453.09 748.79 452.21C749.35 448.53 749.6 444.81 749.85 441.1C749.92 440 750.91 435.67 749.47 435.19C748.77 434.96 747.32 435.68 746.65 435.92C745.636 436.259 744.7 436.8 743.9 437.51Z" fill="#2B2B2B"/>
<path d="M762.23 425.53C762.23 425.53 755.55 430.64 751.62 431.82C751.62 431.82 749.29 434.48 748.89 435.12C748.49 435.76 747.69 442.82 746.89 444.4C746.09 445.98 744.14 449.51 746.89 453.04C746.89 453.04 747.67 456.58 747.28 457.76C746.89 458.94 745.46 463.26 746.76 463.46C748.06 463.66 752 466.4 755.53 465.62C759.06 464.84 772.24 468.62 772.24 468.62C772.24 468.62 774.42 448.37 776 444.79L772.46 443.61C772.46 443.61 762.64 437.72 768.53 428.68C768.52 428.68 763 427.5 762.23 425.53Z" fill="#FF6F61"/>
<path d="M737.84 449.2L745.96 454.95C746.063 455.026 746.187 455.066 746.315 455.066C746.443 455.066 746.567 455.026 746.67 454.95L748.87 453.3C748.938 453.242 748.992 453.17 749.029 453.089C749.066 453.007 749.086 452.919 749.086 452.83C749.086 452.741 749.066 452.653 749.029 452.571C748.992 452.49 748.938 452.418 748.87 452.36L742.62 446.81C742.539 446.736 742.439 446.686 742.332 446.665C742.224 446.644 742.113 446.652 742.01 446.69L738 448.13C737.895 448.166 737.801 448.231 737.73 448.317C737.658 448.402 737.612 448.506 737.596 448.616C737.579 448.727 737.593 448.839 737.636 448.942C737.679 449.045 737.75 449.134 737.84 449.2Z" fill="#EB2441"/>
<path d="M740.57 466.52C739.996 464.528 739.71 462.463 739.72 460.39L739.6 457.62C739.479 456.545 739.578 455.456 739.89 454.42C740.198 453.709 740.66 453.076 741.243 452.566C741.826 452.056 742.515 451.681 743.26 451.47C744.753 451.056 746.313 450.943 747.85 451.14C748.057 451.141 748.261 451.196 748.44 451.3C748.597 451.445 748.708 451.633 748.76 451.84C748.987 452.283 749.121 452.769 749.152 453.266C749.183 453.763 749.111 454.262 748.94 454.73C748.708 455.111 748.394 455.436 748.02 455.68C746.93 456.46 745.66 456.98 744.63 457.83C744.421 457.971 744.26 458.174 744.17 458.41C744.12 458.617 744.12 458.833 744.17 459.04C744.298 459.59 744.472 460.129 744.69 460.65C744.778 460.912 744.933 461.146 745.14 461.33C745.33 461.49 745.58 461.55 745.78 461.7C746.21 462.05 747.11 462.51 747.06 463.06C746.91 465.06 745.71 467.3 745.24 469.28C744.34 473.15 741.15 468.21 740.57 466.52Z" fill="#BE6F72"/>
<g opacity="0.1">
<path opacity="0.1" d="M753.2 465.62H752.98C753.829 465.785 754.701 465.785 755.55 465.62H755.8C754.938 465.494 754.062 465.494 753.2 465.62Z" fill="#2B2B2B"/>
<path opacity="0.1" d="M773.83 444.2C772.42 447.37 770.34 464.54 769.97 467.95C771.35 468.31 772.26 468.57 772.26 468.57C772.26 468.57 774.42 448.37 776 444.79L773.83 444.2Z" fill="#2B2B2B"/>
</g>
<path d="M769.42 438.98C769.493 439.375 769.646 439.751 769.867 440.086C770.089 440.421 770.375 440.708 770.71 440.93C771.545 441.63 772.311 442.406 773 443.25C773.988 444.64 774.754 446.175 775.27 447.8C776.02 449.835 776.651 451.912 777.16 454.02C772.16 456.34 766.48 456.23 761.16 457.76C758.869 458.364 756.792 459.593 755.16 461.31C754.346 462.173 753.728 463.201 753.346 464.324C752.965 465.448 752.83 466.64 752.95 467.82C752.958 467.958 752.999 468.092 753.07 468.21C753.157 468.308 753.265 468.384 753.387 468.433C753.508 468.482 753.64 468.501 753.77 468.49C755.099 468.488 756.39 468.045 757.44 467.23C758.478 466.419 759.42 465.493 760.25 464.47C760.765 463.799 761.458 463.287 762.25 462.99C765.14 462.11 768.25 462.16 771.25 462.11C775.737 462.022 780.215 461.668 784.66 461.05C784.822 461.069 784.987 461.052 785.141 460.998C785.295 460.945 785.436 460.857 785.551 460.741C785.667 460.626 785.754 460.485 785.808 460.331C785.861 460.177 785.879 460.012 785.86 459.85C786.3 453.95 784.11 448.19 781.86 442.72C780.96 440.527 780.033 438.343 779.08 436.17C778.295 434.046 777.144 432.077 775.68 430.35C775.124 429.722 774.443 429.218 773.68 428.87C772.819 428.56 771.914 428.391 771 428.37C769.545 428.174 768.071 428.147 766.61 428.29C766.377 429.026 766.236 429.789 766.19 430.56C766.27 433.26 767.45 435.79 768.61 438.23C768.76 438.6 769.19 438.62 769.42 438.98Z" fill="#BE6F72"/>
<path opacity="0.1" d="M753.41 444.04C752.733 445.198 752.388 446.519 752.41 447.86C752.412 448.39 752.497 448.916 752.66 449.42C752.933 450.127 753.361 450.764 753.914 451.283C754.466 451.802 755.127 452.191 755.85 452.42" stroke="#2B2B2B" stroke-miterlimit="10"/>
<path d="M758.5 411.19C758.007 411.188 757.518 411.266 757.05 411.42C755.74 409.42 752.66 408.04 749.05 408.04C744.27 408.04 740.4 410.51 740.4 413.55C740.4 416.59 744.27 419.05 749.05 419.05C750.84 419.07 752.612 418.694 754.24 417.95C754.606 418.708 755.169 419.353 755.869 419.82C756.569 420.286 757.382 420.557 758.222 420.603C759.062 420.649 759.899 420.469 760.646 420.083C761.394 419.696 762.023 419.116 762.471 418.403C762.918 417.69 763.166 416.87 763.189 416.029C763.212 415.188 763.009 414.356 762.602 413.62C762.194 412.884 761.597 412.27 760.872 411.843C760.148 411.415 759.321 411.19 758.48 411.19H758.5Z" fill="#E8E8F0"/>
<path opacity="0.1" d="M758.89 419.44C758.003 419.44 757.135 419.19 756.385 418.717C755.634 418.245 755.033 417.57 754.65 416.77C753.022 417.514 751.25 417.89 749.46 417.87C744.69 417.87 740.82 415.41 740.82 412.37C740.805 412.187 740.805 412.003 740.82 411.82C740.535 412.353 740.384 412.946 740.38 413.55C740.38 416.55 744.25 419.05 749.03 419.05C750.82 419.07 752.592 418.694 754.22 417.95C754.651 418.843 755.352 419.577 756.224 420.048C757.097 420.519 758.095 420.703 759.078 420.573C760.061 420.444 760.978 420.007 761.698 419.326C762.419 418.645 762.906 417.754 763.09 416.78C762.71 417.572 762.114 418.242 761.371 418.712C760.629 419.183 759.769 419.435 758.89 419.44Z" fill="#2B2B2B"/>
<path opacity="0.1" d="M739.23 411.37C740.554 408.658 742.758 406.475 745.482 405.177C748.206 403.878 751.29 403.541 754.23 404.22C756.288 402.95 758.636 402.228 761.052 402.124C763.468 402.021 765.87 402.538 768.029 403.628C770.188 404.717 772.031 406.342 773.383 408.347C774.735 410.352 775.55 412.67 775.75 415.08C775.75 414.69 775.75 414.3 775.75 413.9C775.745 411.385 775.068 408.917 773.791 406.75C772.514 404.584 770.682 402.797 768.484 401.574C766.287 400.351 763.802 399.737 761.288 399.794C758.774 399.851 756.32 400.578 754.18 401.9C751.24 401.221 748.156 401.558 745.432 402.857C742.708 404.155 740.504 406.338 739.18 409.05C737.531 410.61 736.226 412.498 735.349 414.592C734.473 416.686 734.044 418.94 734.09 421.21C734.09 421.61 734.09 422 734.09 422.39C734.286 418.183 736.133 414.224 739.23 411.37Z" fill="#2B2B2B"/>
<path d="M471 425.28C471.013 423.746 470.666 422.23 469.987 420.855C469.308 419.48 468.316 418.282 467.09 417.36C467.075 414.649 466.102 412.03 464.344 409.966C462.586 407.902 460.155 406.526 457.48 406.08C457.067 404.109 456.142 402.281 454.8 400.781C453.457 399.28 451.743 398.159 449.83 397.53C449.366 397.385 448.891 397.274 448.41 397.2H448.27H448.02H447.82H447.6H447.33H446.72C444.063 397.261 441.513 398.261 439.522 400.021C437.531 401.782 436.226 404.19 435.84 406.82C432.33 406.01 429.12 407.06 428.53 409.28C428.382 409.87 428.417 410.49 428.63 411.06C429.23 412.78 431.18 414.43 433.79 415.24L434.13 415.34L434.64 415.47H434.75C434.193 416.655 433.906 417.95 433.91 419.26C433.902 420.867 434.337 422.446 435.168 423.822C435.999 425.198 437.194 426.319 438.62 427.06L438.39 427.2C438.065 427.496 437.806 427.857 437.63 428.26C436.999 429.376 436.505 430.565 436.16 431.8C435.91 432.86 435.87 433.96 435.56 435.01C434.98 436.94 433.5 438.57 433.33 440.58C433.25 441.48 433.4 442.58 432.76 443.16C432.603 443.297 432.432 443.417 432.25 443.52C431.807 443.833 431.43 444.231 431.14 444.69C430.948 445.106 430.684 445.486 430.36 445.81C429.78 446.24 428.83 446.2 428.55 446.87C428.27 447.54 429 448.33 428.83 449.06C428.66 449.79 428.04 449.93 427.59 450.34C427.067 450.903 426.698 451.592 426.52 452.34C425.574 452.52 424.599 452.49 423.666 452.252C422.733 452.013 421.864 451.572 421.12 450.96C421.375 451.606 421.563 452.276 421.68 452.96C420.81 452.296 419.823 451.8 418.77 451.5C417.586 450.961 416.529 450.177 415.67 449.2L417.33 448.97L410 437.78L407.83 437.33L409.77 441.06C409.608 441.134 409.464 441.243 409.35 441.38C409.236 441.517 409.154 441.677 409.11 441.85C409.007 442.265 408.983 442.696 409.04 443.12C409.14 444.13 409.307 445.132 409.54 446.12L410.1 448.74C410.15 448.98 410.21 449.23 410.28 449.47C409.549 449.434 408.816 449.515 408.11 449.71C406.656 449.169 405.142 448.81 403.6 448.64C403.27 448.573 402.93 448.573 402.6 448.64C402.226 448.817 401.901 449.081 401.65 449.41C400.387 450.874 399.266 452.455 398.3 454.13C394.3 460.99 389.09 466.98 384.16 473.18C380.76 474.56 377.33 475.87 373.9 477.18L366.52 480C365.081 480.653 363.52 480.994 361.94 481C361.24 481 360.37 480.85 359.94 481.45C359.747 481.762 359.596 482.098 359.49 482.45L358.73 482.53C358.38 481.329 357.776 480.217 356.96 479.27C356.78 479.301 356.61 479.375 356.466 479.487C356.321 479.598 356.206 479.744 356.13 479.91C355.95 480.24 355.84 480.6 355.63 480.91C355.24 481.49 354.55 481.77 354.06 482.26C353.57 482.75 353.26 483.51 352.72 484.01C351.984 484.555 351.119 484.899 350.21 485.01C348.84 485.33 347.518 485.831 346.28 486.5C345.827 486.784 345.34 487.009 344.83 487.17C344.267 487.28 343.69 487.3 343.12 487.23L339.22 486.94C338.87 486.896 338.515 486.913 338.17 486.99C337.778 487.149 337.448 487.429 337.225 487.788C337.002 488.148 336.899 488.568 336.93 488.99C336.98 489.414 337.116 489.823 337.329 490.192C337.543 490.562 337.829 490.884 338.17 491.14C338.845 491.638 339.594 492.026 340.39 492.29C343.765 493.604 347.244 494.634 350.79 495.37V496.16C353.271 497.411 356.011 498.062 358.79 498.06C358.996 498.074 359.202 498.036 359.39 497.95C359.645 497.759 359.823 497.482 359.89 497.17C360.719 494.689 361.243 492.117 361.45 489.51C361.938 489.477 362.416 489.355 362.86 489.15C364.2 488.78 365.54 489.7 366.93 489.85C368.64 490.04 370.22 489.04 371.84 488.43L372.54 488.2C372.079 488.793 371.533 489.315 370.92 489.75C370.25 490.23 369.5 490.59 368.85 491.09C368.3 491.588 367.711 492.043 367.09 492.45C366.652 492.653 366.201 492.826 365.74 492.97C365.058 493.223 364.41 493.559 363.81 493.97C363.278 494.287 362.829 494.726 362.5 495.25C362.336 495.518 362.24 495.822 362.221 496.136C362.201 496.45 362.26 496.764 362.39 497.05C362.528 497.283 362.715 497.484 362.938 497.64C363.16 497.795 363.413 497.901 363.68 497.95C364.207 498.03 364.743 498.03 365.27 497.95C367.39 497.79 369.5 497.6 371.61 497.41C372.502 497.353 373.388 497.226 374.26 497.03C374.72 496.92 375.18 496.77 375.64 496.64C376.43 496.441 377.237 496.32 378.05 496.28C378.286 496.262 378.523 496.285 378.75 496.35C379.24 496.51 379.59 497.01 380.09 497.11C380.429 497.153 380.773 497.108 381.09 496.98C382.631 496.648 384.203 496.48 385.78 496.48C386.47 496.48 387.28 496.31 387.6 495.67C387.92 495.03 387.34 494 387.08 493.15C386.947 492.606 386.873 492.05 386.86 491.49C386.739 490.112 386.345 488.773 385.7 487.55C385.352 486.98 385.061 486.377 384.83 485.75C387.854 484.601 390.747 483.133 393.46 481.37C394.946 480.294 396.612 479.491 398.38 479C400.468 478.751 402.585 478.998 404.56 479.72C409.368 481.113 414.098 482.762 418.73 484.66C420.94 485.57 423.14 486.53 425.42 487.22C426.085 488.112 426.889 488.892 427.8 489.53C429.375 490.416 431.144 490.9 432.95 490.94C435.36 491.16 437.78 491.25 440.2 491.21C442.053 491.29 443.899 490.948 445.6 490.21C446.006 490.007 446.385 489.755 446.73 489.46C447.383 489.515 448.04 489.427 448.656 489.2C449.271 488.974 449.829 488.615 450.29 488.15C451.601 487.027 452.545 485.536 453 483.87C453.59 481.59 453.14 478.87 454.54 477.05C454.91 476.55 455.4 476.15 455.77 475.65C456.218 474.965 456.442 474.158 456.41 473.34C456.426 473.308 456.447 473.278 456.47 473.25C456.777 472.515 456.979 471.741 457.07 470.95C457.242 470.328 457.459 469.72 457.72 469.13C458.431 467.366 459.052 465.567 459.58 463.74C459.941 462.525 460.228 461.289 460.44 460.04C460.59 459.04 460.68 458.04 460.76 457.04C460.866 455.464 461.172 453.908 461.67 452.41C462.922 448.843 463.63 445.108 463.77 441.33V441.11C465.612 440.898 467.309 440.005 468.527 438.606C469.744 437.208 470.395 435.404 470.35 433.55C470.35 432.437 470.115 431.336 469.66 430.32C470.545 428.788 471.007 427.049 471 425.28ZM435.22 468.75C435.33 469.14 435.46 469.52 435.59 469.9C435 469.33 434.43 468.74 433.84 468.16C434.07 468.24 434.31 468.31 434.53 468.4C434.761 468.494 434.982 468.611 435.19 468.75H435.22ZM432.39 466.83C428.93 463.83 424.93 461.5 421.39 458.59C423.32 459.54 425.2 460.65 427.06 461.71C429.267 462.97 431.503 464.18 433.77 465.34C433.398 465.921 432.919 466.426 432.36 466.83H432.39ZM433.86 459.27L434.03 459.1C434.03 459.53 434.03 459.92 434.03 460.29L433.1 459.97C433.357 459.752 433.601 459.518 433.83 459.27H433.86ZM403.43 467.37C404.849 465.763 406.084 464.002 407.11 462.12C408.48 464.51 410.71 466.24 412.6 468.25C409.55 467.86 406.49 467.53 403.43 467.37Z" fill="url(#paint1_linear)"/>
<path d="M408.35 438.25L410.53 438.69L417.96 449.68L414.69 450.12L408.35 438.25Z" fill="#2F2E41"/>
<path d="M355.49 482.83C356.081 484.769 356.81 486.664 357.67 488.5C360.132 487.98 362.555 487.288 364.92 486.43C364.454 485.736 363.95 485.069 363.41 484.43C362.823 483.792 362.129 483.26 361.36 482.86C360.54 482.675 359.69 482.675 358.87 482.86C357.75 482.83 356.62 482.85 355.49 482.83Z" fill="#FBBEBE"/>
<path d="M361.37 485.76C360.779 485.495 360.251 485.106 359.823 484.62C359.395 484.133 359.077 483.56 358.89 482.94C358.509 481.694 357.864 480.545 357 479.57C356.818 479.595 356.645 479.666 356.498 479.776C356.351 479.886 356.235 480.032 356.16 480.2C355.98 480.52 355.87 480.88 355.67 481.2C355.27 481.77 354.57 482.05 354.07 482.53C353.57 483.01 353.27 483.76 352.73 484.25C351.988 484.797 351.116 485.142 350.2 485.25C348.808 485.564 347.464 486.058 346.2 486.72C345.737 486.997 345.244 487.218 344.73 487.38C344.16 487.465 343.58 487.465 343.01 487.38L339.07 487.1C338.739 487.046 338.401 487.046 338.07 487.1C337.668 487.245 337.326 487.521 337.099 487.884C336.873 488.247 336.774 488.675 336.82 489.1C336.867 489.522 337.002 489.929 337.218 490.294C337.433 490.66 337.724 490.975 338.07 491.22C338.754 491.712 339.51 492.096 340.31 492.36C343.74 493.652 347.273 494.655 350.87 495.36V496.14C353.375 497.37 356.129 498.009 358.92 498.01C359.125 498.022 359.33 497.988 359.52 497.91C359.775 497.719 359.953 497.442 360.02 497.13C360.968 494.368 361.523 491.487 361.67 488.57C361.734 487.829 361.677 487.083 361.5 486.36C361.28 485.65 362.02 485.95 361.34 485.67" fill="#2F2E41"/>
<path d="M436.93 470.91C425.25 471.61 413.71 468.19 402.01 467.83C400.558 467.734 399.099 467.825 397.67 468.1C396.182 468.504 394.74 469.063 393.37 469.77C387.1 472.69 380.61 475.11 374.13 477.52L366.68 480.29C365.231 480.945 363.66 481.285 362.07 481.29C361.36 481.29 360.49 481.14 360.07 481.73C358.86 483.53 359.43 486.16 360.23 488.18C360.49 488.83 360.93 489.54 361.63 489.61C362.121 489.577 362.602 489.455 363.05 489.25C364.4 488.89 365.75 489.8 367.15 489.95C368.87 490.13 370.47 489.15 372.1 488.55C374.8 487.55 377.74 487.55 380.58 487.11C385.33 486.32 389.74 484.11 393.86 481.6C395.358 480.532 397.034 479.74 398.81 479.26C400.914 479.012 403.046 479.255 405.04 479.97C409.886 481.337 414.656 482.96 419.33 484.83C421.76 485.888 424.251 486.799 426.79 487.56C432.332 489.01 438.191 488.66 443.52 486.56C445.39 485.82 447.42 484.56 447.52 482.5C447.59 481.35 446.69 480.34 446.1 479.35C445.72 478.72 445.33 478.09 444.92 477.48C442.92 474.58 440.48 470.7 436.93 470.91Z" fill="#2F2E41"/>
<path opacity="0.1" d="M436.93 470.91C425.25 471.61 413.71 468.19 402.01 467.83C400.558 467.734 399.099 467.825 397.67 468.1C396.182 468.504 394.74 469.063 393.37 469.77C387.1 472.69 380.61 475.11 374.13 477.52L366.68 480.29C365.231 480.945 363.66 481.285 362.07 481.29C361.36 481.29 360.49 481.14 360.07 481.73C358.86 483.53 359.43 486.16 360.23 488.18C360.49 488.83 360.93 489.54 361.63 489.61C362.121 489.577 362.602 489.455 363.05 489.25C364.4 488.89 365.75 489.8 367.15 489.95C368.87 490.13 370.47 489.15 372.1 488.55C374.8 487.55 377.74 487.55 380.58 487.11C385.33 486.32 389.74 484.11 393.86 481.6C395.358 480.532 397.034 479.74 398.81 479.26C400.914 479.012 403.046 479.255 405.04 479.97C409.886 481.337 414.656 482.96 419.33 484.83C421.76 485.888 424.251 486.799 426.79 487.56C432.332 489.01 438.191 488.66 443.52 486.56C445.39 485.82 447.42 484.56 447.52 482.5C447.59 481.35 446.69 480.34 446.1 479.35C445.72 478.72 445.33 478.09 444.92 477.48C442.92 474.58 440.48 470.7 436.93 470.91Z" fill="#2B2B2B"/>
<path d="M377.92 483.37C379.747 483.99 381.59 484.563 383.45 485.09C384.45 483.38 386.45 482.19 386.88 480.23C386.905 480.145 386.905 480.055 386.88 479.97C386.831 479.887 386.758 479.821 386.67 479.78C385.333 479.046 383.852 478.612 382.33 478.51C381.13 478.44 380.58 479.69 380.04 480.57C379.83 480.96 378.41 483.56 377.92 483.37Z" fill="#FBBEBE"/>
<path d="M380.48 482.15C379.933 482.058 379.412 481.852 378.949 481.548C378.486 481.243 378.091 480.845 377.79 480.38C377.54 479.93 377.26 479.32 376.74 479.38C376.22 479.44 376.05 479.98 375.94 480.45C375.594 482.222 375.088 483.959 374.43 485.64C373.77 487.33 372.651 488.802 371.2 489.89C370.52 490.36 369.77 490.71 369.1 491.21C368.545 491.702 367.954 492.15 367.33 492.55C366.889 492.748 366.434 492.915 365.97 493.05C365.287 493.307 364.636 493.643 364.03 494.05C363.491 494.36 363.034 494.796 362.7 495.32C362.535 495.582 362.439 495.883 362.421 496.192C362.404 496.502 362.465 496.811 362.6 497.09C362.74 497.32 362.927 497.518 363.15 497.67C363.372 497.821 363.625 497.924 363.89 497.97C364.424 498.05 364.966 498.05 365.5 497.97C367.63 497.82 369.76 497.63 371.89 497.44C372.788 497.382 373.68 497.258 374.56 497.07L375.95 496.69C376.744 496.48 377.559 496.359 378.38 496.33C378.619 496.308 378.86 496.332 379.09 496.4C379.58 496.56 379.93 497.05 380.44 497.15C380.779 497.183 381.121 497.138 381.44 497.02C382.994 496.687 384.58 496.523 386.17 496.53C386.87 496.53 387.69 496.35 388.01 495.73C388.41 494.95 387.75 494.08 387.48 493.24C387.351 492.706 387.277 492.16 387.26 491.61C387.141 490.25 386.742 488.929 386.09 487.73C385.55 486.73 384.81 485.63 385.19 484.57C385.379 484.233 385.501 483.863 385.55 483.48C385.4 481.76 381.46 482.37 380.48 482.15Z" fill="#2F2E41"/>
<path d="M419.42 452.17C417.347 451.262 415.686 449.615 414.76 447.55C414.57 447.11 414.41 446.64 414.22 446.2C413.61 444.71 412.658 443.384 411.44 442.33C411.312 442.194 411.157 442.085 410.985 442.011C410.813 441.937 410.627 441.9 410.44 441.9C410.254 441.956 410.087 442.061 409.955 442.203C409.823 442.345 409.732 442.52 409.69 442.71C409.578 443.117 409.551 443.542 409.61 443.96C409.712 444.943 409.879 445.919 410.11 446.88L410.68 449.46C410.756 449.855 410.873 450.24 411.03 450.61C411.274 451.042 411.596 451.426 411.98 451.74C412.5 452.22 413.03 452.68 413.56 453.14C413.867 453.407 414.202 453.638 414.56 453.83C415.119 454.097 415.716 454.272 416.33 454.35C418.716 454.661 420.993 455.538 422.97 456.91C422.97 456.91 422.97 455.18 422.97 454.99C422.945 454.487 422.771 454.004 422.47 453.6C421.554 452.933 420.519 452.447 419.42 452.17Z" fill="#FBBEBE"/>
<path opacity="0.1" d="M419.42 452.17C417.347 451.262 415.686 449.615 414.76 447.55C414.57 447.11 414.41 446.64 414.22 446.2C413.61 444.71 412.658 443.384 411.44 442.33C411.312 442.194 411.157 442.085 410.985 442.011C410.813 441.937 410.627 441.9 410.44 441.9C410.254 441.956 410.087 442.061 409.955 442.203C409.823 442.345 409.732 442.52 409.69 442.71C409.578 443.117 409.551 443.542 409.61 443.96C409.712 444.943 409.879 445.919 410.11 446.88L410.68 449.46C410.756 449.855 410.873 450.24 411.03 450.61C411.274 451.042 411.596 451.426 411.98 451.74C412.5 452.22 413.03 452.68 413.56 453.14C413.867 453.407 414.202 453.638 414.56 453.83C415.119 454.097 415.716 454.272 416.33 454.35C418.716 454.661 420.993 455.538 422.97 456.91C422.97 456.91 422.97 455.18 422.97 454.99C422.945 454.487 422.771 454.004 422.47 453.6C421.554 452.933 420.519 452.447 419.42 452.17Z" fill="#2B2B2B"/>
<path d="M443.2 432.43C444.769 432.43 446.04 431.15 446.04 429.57C446.04 427.99 444.769 426.71 443.2 426.71C441.632 426.71 440.36 427.99 440.36 429.57C440.36 431.15 441.632 432.43 443.2 432.43Z" fill="#2F2E41"/>
<path d="M441.44 427.85C440.68 427.667 439.879 427.782 439.2 428.17C438.872 428.462 438.61 428.819 438.43 429.22C437.794 430.314 437.297 431.483 436.95 432.7C436.7 433.7 436.66 434.83 436.34 435.86C435.76 437.76 434.27 439.37 434.1 441.35C434.02 442.24 434.17 443.28 433.52 443.88C433.361 444.018 433.19 444.141 433.01 444.25C432.56 444.55 432.178 444.942 431.89 445.4C431.694 445.808 431.427 446.177 431.1 446.49C430.52 446.92 429.56 446.88 429.28 447.49C429 448.1 429.73 448.93 429.56 449.65C429.39 450.37 428.76 450.51 428.31 450.91C427.78 451.47 427.407 452.16 427.23 452.91C426.28 453.093 425.301 453.067 424.361 452.834C423.422 452.601 422.545 452.166 421.79 451.56C422.45 453.564 422.738 455.672 422.64 457.78C422.69 458.117 422.671 458.461 422.585 458.791C422.499 459.121 422.348 459.43 422.14 459.7C424.396 459.868 426.63 460.256 428.81 460.86C429.754 461.175 430.776 461.175 431.72 460.86C432.226 460.588 432.679 460.23 433.06 459.8C434.26 458.58 435.52 457.25 435.81 455.56C435.882 454.605 435.899 453.647 435.86 452.69C435.974 451.503 436.219 450.333 436.59 449.2C437.223 446.848 437.648 444.446 437.86 442.02C437.99 440.52 439.29 439.32 439.97 438.02C441.25 435.49 442.57 432.86 442.66 430.02C442.7 429.1 442.38 427.95 441.44 427.85Z" fill="#2F2E41"/>
<path opacity="0.1" d="M441.44 427.85C440.68 427.667 439.879 427.782 439.2 428.17C438.872 428.462 438.61 428.819 438.43 429.22C437.794 430.314 437.297 431.483 436.95 432.7C436.7 433.7 436.66 434.83 436.34 435.86C435.76 437.76 434.27 439.37 434.1 441.35C434.02 442.24 434.17 443.28 433.52 443.88C433.361 444.018 433.19 444.141 433.01 444.25C432.56 444.55 432.178 444.942 431.89 445.4C431.694 445.808 431.427 446.177 431.1 446.49C430.52 446.92 429.56 446.88 429.28 447.49C429 448.1 429.73 448.93 429.56 449.65C429.39 450.37 428.76 450.51 428.31 450.91C427.78 451.47 427.407 452.16 427.23 452.91C426.28 453.093 425.301 453.067 424.361 452.834C423.422 452.601 422.545 452.166 421.79 451.56C422.45 453.564 422.738 455.672 422.64 457.78C422.69 458.117 422.671 458.461 422.585 458.791C422.499 459.121 422.348 459.43 422.14 459.7C424.396 459.868 426.63 460.256 428.81 460.86C429.754 461.175 430.776 461.175 431.72 460.86C432.226 460.588 432.679 460.23 433.06 459.8C434.26 458.58 435.52 457.25 435.81 455.56C435.882 454.605 435.899 453.647 435.86 452.69C435.974 451.503 436.219 450.333 436.59 449.2C437.223 446.848 437.648 444.446 437.86 442.02C437.99 440.52 439.29 439.32 439.97 438.02C441.25 435.49 442.57 432.86 442.66 430.02C442.7 429.1 442.38 427.95 441.44 427.85Z" fill="#2B2B2B"/>
<path d="M438.78 473.37C436.35 472.21 434.57 470.06 432.6 468.21C428.85 464.68 424.26 462.21 420.31 458.88C417.69 456.69 415.31 454.14 412.48 452.3C409.945 450.693 407.074 449.69 404.09 449.37C403.761 449.294 403.419 449.294 403.09 449.37C402.712 449.531 402.384 449.79 402.14 450.12C400.865 451.559 399.73 453.116 398.75 454.77C393.75 463.27 386.64 470.41 380.75 478.31C380.615 478.474 380.516 478.665 380.46 478.87C380.435 479.176 380.513 479.482 380.68 479.74L381.88 482.08C382.55 483.4 383.63 484.93 385.07 484.67C385.718 484.482 386.299 484.111 386.74 483.6L392.12 478.45L397.76 473.06C401.06 469.91 404.42 466.68 406.58 462.64C408.26 465.56 411.25 467.47 413.29 470.14C414.07 471.14 414.71 472.27 415.41 473.35C416.52 475.07 417.79 476.69 419.05 478.35L425.52 486.6C426.34 487.765 427.355 488.78 428.52 489.6C430.115 490.468 431.894 490.945 433.71 490.99C436.14 491.207 438.58 491.293 441.02 491.25C442.888 491.325 444.75 490.984 446.47 490.25C447.327 489.873 448.06 489.26 448.582 488.483C449.104 487.706 449.395 486.796 449.42 485.86C449.32 484.891 449.002 483.958 448.49 483.13C446.15 478.96 443.13 475.44 438.78 473.37Z" fill="#2F2E41"/>
<path d="M444.95 433.75C446.16 433.75 447.14 432.765 447.14 431.55C447.14 430.335 446.16 429.35 444.95 429.35C443.741 429.35 442.76 430.335 442.76 431.55C442.76 432.765 443.741 433.75 444.95 433.75Z" fill="#E8E8F0"/>
<path d="M444.47 429.9C444.959 430.882 445.045 432.016 444.71 433.06C444.365 434.086 443.891 435.063 443.3 435.97C442.792 436.904 442.178 437.777 441.47 438.57C444.85 438.73 448.12 437.41 451.09 435.81C453.49 434.52 455.88 432.93 457.16 430.52C456.778 430.611 456.381 430.621 455.995 430.548C455.609 430.476 455.243 430.323 454.92 430.1C454.275 429.657 453.699 429.121 453.21 428.51L451.52 426.61C451.137 426.192 450.801 425.733 450.52 425.24C450.149 424.566 449.992 423.795 450.07 423.03C449.396 423.733 448.645 424.357 447.83 424.89C446.62 425.68 445.29 426.25 444.07 427.03C443.65 427.31 442.69 427.75 442.94 428.31C443.19 428.87 444.13 429.3 444.47 429.9Z" fill="#FBBEBE"/>
<path opacity="0.1" d="M444.47 429.9C444.959 430.882 445.045 432.016 444.71 433.06C444.365 434.086 443.891 435.063 443.3 435.97C442.792 436.904 442.178 437.777 441.47 438.57C444.85 438.73 448.12 437.41 451.09 435.81C453.49 434.52 455.88 432.93 457.16 430.52C456.778 430.611 456.381 430.621 455.995 430.548C455.609 430.476 455.243 430.323 454.92 430.1C454.275 429.657 453.699 429.121 453.21 428.51L451.52 426.61C451.137 426.192 450.801 425.733 450.52 425.24C450.149 424.566 449.992 423.795 450.07 423.03C449.396 423.733 448.645 424.357 447.83 424.89C446.62 425.68 445.29 426.25 444.07 427.03C443.65 427.31 442.69 427.75 442.94 428.31C443.19 428.87 444.13 429.3 444.47 429.9Z" fill="#2B2B2B"/>
<path d="M444.51 430.23C444.168 430.712 443.984 431.289 443.984 431.88C443.984 432.471 444.168 433.048 444.51 433.53C444.61 433.65 444.97 434.4 445.12 434.41C445.193 434.404 445.265 434.383 445.33 434.349C445.396 434.314 445.453 434.267 445.5 434.21C446.269 433.408 446.984 432.556 447.64 431.66C448.31 430.766 449.272 430.136 450.36 429.88C451.707 429.829 453.031 430.242 454.11 431.05C454.612 431.279 455.053 431.621 455.4 432.05C455.641 432.491 455.785 432.979 455.82 433.48C456.147 436.498 456.274 439.535 456.2 442.57C456.257 444.762 456.113 446.954 455.77 449.12C455.55 450.23 455.23 451.32 455.08 452.45C454.963 453.445 454.916 454.448 454.94 455.45V459.63C454.913 460.397 454.967 461.164 455.1 461.92C455.3 462.83 455.73 463.68 456.02 464.57C456.319 465.592 456.523 466.64 456.63 467.7L457.2 472.02C457.38 473.38 457.52 474.87 456.69 476.02C456.32 476.51 455.83 476.91 455.45 477.4C454.04 479.24 454.45 481.87 453.9 484.12C453.437 485.767 452.481 487.233 451.16 488.32C450.689 488.786 450.122 489.143 449.498 489.366C448.874 489.589 448.209 489.672 447.55 489.61C445.79 489.28 444.74 487.45 444.26 485.72C443.78 483.99 443.61 482.11 442.57 480.65C441.615 479.545 440.487 478.603 439.23 477.86C437.958 477.106 437.023 475.893 436.62 474.47C436.51 473.84 436.62 473.19 436.51 472.55C436.416 471.745 436.107 470.979 435.617 470.334C435.126 469.688 434.471 469.186 433.72 468.88C432.82 468.53 431.72 468.4 431.2 467.58C432.487 466.774 433.426 465.514 433.83 464.05C434.228 462.596 434.443 461.097 434.47 459.59L434.77 454.59C434.91 452.34 434.97 450.12 435.96 448.1C436.4 447.2 436.96 446.35 437.41 445.46C438.02 444.209 438.538 442.916 438.96 441.59C439.68 439.53 440.4 437.47 441.04 435.39C441.29 434.38 441.673 433.408 442.18 432.5C442.72 431.56 443.5 430.43 444.51 430.23Z" fill="#E8E8F0"/>
<path d="M433.36 462.87H434.69L434.97 460.87C435.006 460.469 435.101 460.074 435.25 459.7C435.47 459.303 435.728 458.928 436.02 458.58C437.32 456.73 437.23 454.28 437.55 452.03C438.13 449.057 439.112 446.177 440.47 443.47L443.05 437.72C443.285 437.25 443.472 436.757 443.61 436.25C443.718 435.69 443.772 435.121 443.77 434.55C443.77 433.66 444.05 430.42 444.08 429.55C444.08 429.22 443.35 429.4 443.2 429.11C442.88 428.47 442.44 430.2 441.83 430.58C441.257 431.017 440.84 431.627 440.64 432.32C440.08 433.76 439.74 435.32 439.22 436.75C438.768 438.243 437.938 439.593 436.81 440.67C436.28 441.13 435.67 441.5 435.17 442C433.57 443.58 433.41 446.09 433.36 448.35C433.32 449.73 433.06 462.87 433.36 462.87Z" fill="#2F2E41"/>
<path d="M452.5 427.84C451.882 428.163 451.346 428.625 450.935 429.188C450.524 429.752 450.249 430.403 450.13 431.09C449.902 432.469 449.498 433.813 448.93 435.09C447.31 437.91 443.18 438.73 442.03 441.78C441.741 442.806 441.586 443.865 441.57 444.93C441.37 447.12 440.65 449.23 440.43 451.41C440.32 453.107 440.36 454.81 440.55 456.5L442 473.72C442.278 476.253 442.132 478.815 441.57 481.3C443.056 481.512 444.572 481.261 445.91 480.58C447.26 479.96 448.5 479.11 449.81 478.39C452.05 477.15 454.53 476.28 456.5 474.63C456.853 474.349 457.157 474.011 457.4 473.63C457.701 472.907 457.903 472.147 458 471.37C458.17 470.761 458.387 470.166 458.65 469.59C459.372 467.852 459.999 466.076 460.53 464.27C460.891 463.075 461.178 461.86 461.39 460.63C461.55 459.63 461.64 458.63 461.72 457.63C461.824 456.079 462.134 454.549 462.64 453.08C463.895 449.569 464.606 445.886 464.75 442.16C464.789 441.624 464.752 441.086 464.64 440.56C464.42 439.917 464.125 439.303 463.76 438.73C463.16 437.6 462.76 436.36 462.24 435.21C460.822 432.677 458.79 430.542 456.33 429C455.17 428.21 453.81 427.37 452.5 427.84Z" fill="#2F2E41"/>
<path d="M422.29 455.94C421.264 455.401 420.334 454.695 419.54 453.85C419.18 453.43 418.88 452.96 418.54 452.54C417.613 451.542 416.407 450.846 415.08 450.54C413.767 450.251 412.424 450.121 411.08 450.15C410.178 450.09 409.272 450.198 408.41 450.47C407.98 450.614 407.593 450.863 407.284 451.195C406.975 451.527 406.753 451.931 406.64 452.37C406.604 452.914 406.709 453.457 406.946 453.948C407.182 454.439 407.542 454.86 407.99 455.17C408.771 455.811 409.693 456.256 410.68 456.47C411.484 456.613 412.295 456.71 413.11 456.76C417.89 457.26 422.16 459.86 426.35 462.23C430.03 464.323 433.783 466.27 437.61 468.07C437.758 466.926 437.822 465.773 437.8 464.62C437.8 463.76 437.73 462.44 436.92 461.93C435.768 461.448 434.568 461.089 433.34 460.86C430.872 460.054 428.463 459.078 426.13 457.94C424.81 457.37 423.54 456.67 422.29 455.94Z" fill="#FBBEBE"/>
<path d="M443.2 428.92C447.905 428.92 451.72 425.083 451.72 420.35C451.72 415.617 447.905 411.78 443.2 411.78C438.494 411.78 434.68 415.617 434.68 420.35C434.68 425.083 438.494 428.92 443.2 428.92Z" fill="#FBBEBE"/>
<path d="M454.93 437.55C454.25 438.505 453.695 439.543 453.28 440.64C452.28 442.8 450.58 444.64 449.75 446.93C448.92 449.22 448.91 452.16 447.2 454.03C446.858 454.316 446.599 454.689 446.45 455.11C446.443 455.372 446.416 455.632 446.37 455.89C446.12 456.57 445.01 456.6 444.8 457.3C444.74 457.5 444.8 457.72 444.7 457.92C444.53 458.37 443.93 458.44 443.54 458.71C442.71 459.27 442.88 460.57 442.29 461.38C442.033 461.682 441.7 461.91 441.326 462.042C440.952 462.173 440.55 462.204 440.16 462.13C439.384 461.972 438.638 461.692 437.95 461.3C437.703 461.165 437.431 461.08 437.15 461.05C436.818 461.062 436.498 461.173 436.23 461.37C435.476 461.926 434.871 462.659 434.47 463.506C434.068 464.352 433.883 465.284 433.93 466.22C434.045 468.094 434.492 469.933 435.25 471.65C435.334 471.947 435.481 472.224 435.68 472.46C435.978 472.694 436.338 472.834 436.716 472.862C437.093 472.891 437.471 472.806 437.8 472.62C438.452 472.232 439.147 471.92 439.87 471.69C441.19 471.45 442.48 472.36 443.82 472.28C444.796 472.136 445.715 471.732 446.48 471.11C447.826 470.307 449.034 469.294 450.06 468.11C450.64 467.34 451.06 466.47 451.58 465.65C452.242 464.653 452.959 463.695 453.73 462.78L458.65 456.78C459.139 456.21 459.58 455.602 459.97 454.96C460.407 454.085 460.743 453.162 460.97 452.21C461.496 450.625 461.832 448.984 461.97 447.32C462 445.944 461.88 444.569 461.61 443.22C461.461 441.876 461.124 440.56 460.61 439.31C459.54 437.05 456.94 435.21 454.93 437.55Z" fill="#2F2E41"/>
<path d="M472.05 426.37C472.057 424.851 471.704 423.352 471.019 421.996C470.334 420.64 469.337 419.466 468.11 418.57C468.07 415.871 467.074 413.274 465.3 411.24C463.526 409.206 461.088 407.867 458.42 407.46C457.907 404.901 456.507 402.606 454.466 400.979C452.425 399.352 449.875 398.499 447.267 398.569C444.658 398.64 442.158 399.63 440.208 401.365C438.258 403.099 436.984 405.467 436.61 408.05C433.07 407.25 429.83 408.29 429.24 410.47C428.65 412.65 431.15 415.47 434.88 416.47C436.057 416.799 437.282 416.921 438.5 416.83C439.368 418.11 440.495 419.193 441.807 420.011C443.12 420.83 444.589 421.364 446.12 421.58C446.574 423.641 447.592 425.536 449.062 427.051C450.531 428.567 452.393 429.643 454.44 430.16C455.01 431.526 455.89 432.742 457.01 433.71C457.01 433.98 457.01 434.26 457.01 434.54C457.01 435.487 457.197 436.424 457.559 437.299C457.921 438.174 458.452 438.969 459.122 439.638C459.791 440.308 460.586 440.839 461.461 441.201C462.336 441.563 463.273 441.75 464.22 441.75C465.167 441.75 466.104 441.563 466.979 441.201C467.854 440.839 468.649 440.308 469.318 439.638C469.988 438.969 470.519 438.174 470.881 437.299C471.244 436.424 471.43 435.487 471.43 434.54C471.431 433.44 471.195 432.352 470.74 431.35C471.62 429.839 472.073 428.118 472.05 426.37Z" fill="#F86D70"/>
<path opacity="0.1" d="M431.64 410.93C432.23 408.75 435.47 407.71 439.01 408.51C439.43 405.886 440.765 403.495 442.778 401.76C444.791 400.025 447.353 399.058 450.01 399.03H450.74C449.722 398.72 448.664 398.562 447.6 398.56C444.943 398.588 442.381 399.555 440.368 401.29C438.355 403.025 437.02 405.416 436.6 408.04C433.06 407.24 429.82 408.28 429.23 410.46C428.64 412.64 431.14 415.46 434.87 416.46C435.569 416.654 436.286 416.778 437.01 416.83C433.44 415.76 431.05 413.16 431.64 410.93Z" fill="#2B2B2B"/>
<path opacity="0.1" d="M459.37 434.96C459.355 434.687 459.355 434.413 459.37 434.14C458.244 433.177 457.363 431.96 456.8 430.59C454.751 430.075 452.886 428.999 451.416 427.481C449.946 425.963 448.929 424.065 448.48 422C446.947 421.788 445.476 421.257 444.162 420.44C442.847 419.624 441.719 418.54 440.85 417.26C440.14 417.319 439.426 417.299 438.72 417.2C439.596 418.378 440.696 419.37 441.958 420.12C443.219 420.87 444.617 421.363 446.07 421.57C446.524 423.631 447.542 425.526 449.012 427.041C450.481 428.557 452.343 429.633 454.39 430.15C454.96 431.517 455.84 432.732 456.96 433.7C456.96 433.97 456.96 434.25 456.96 434.53C456.928 436.468 457.664 438.341 459.007 439.738C460.35 441.136 462.192 441.945 464.13 441.99C462.716 441.441 461.503 440.474 460.652 439.218C459.802 437.962 459.355 436.477 459.37 434.96Z" fill="#2B2B2B"/>
<path d="M447.107 423.496C447.683 423.058 447.677 422.08 447.092 421.31C446.507 420.54 445.566 420.271 444.99 420.709C444.414 421.146 444.421 422.125 445.006 422.895C445.59 423.664 446.531 423.934 447.107 423.496Z" fill="#FBBEBE"/>
<defs>
<linearGradient id="paint0_linear" x1="760.07" y1="569.95" x2="760.07" y2="397.83" gradientUnits="userSpaceOnUse">
<stop stop-color="#808080" stop-opacity="0.25"/>
<stop offset="0.54" stop-color="#808080" stop-opacity="0.12"/>
<stop offset="1" stop-color="#808080" stop-opacity="0.1"/>
</linearGradient>
<linearGradient id="paint1_linear" x1="62402" y1="67035.2" x2="62402" y2="56849.1" gradientUnits="userSpaceOnUse">
<stop stop-color="#808080" stop-opacity="0.25"/>
<stop offset="0.54" stop-color="#808080" stop-opacity="0.12"/>
<stop offset="1" stop-color="#808080" stop-opacity="0.1"/>
</linearGradient>
</defs>
</svg>
