<svg width="390" height="168" viewBox="0 0 390 168" fill="none" xmlns="http://www.w3.org/2000/svg">
<path d="M39.4142 0.585786C38.6332 -0.195262 37.3668 -0.195262 36.5858 0.585786L23.8579 13.3137C23.0768 14.0948 23.0768 15.3611 23.8579 16.1421C24.6389 16.9232 25.9052 16.9232 26.6863 16.1421L38 4.82843L49.3137 16.1421C50.0948 16.9232 51.3611 16.9232 52.1421 16.1421C52.9232 15.3611 52.9232 14.0948 52.1421 13.3137L39.4142 0.585786ZM40 153L40 2H36L36 153H40Z" fill="white"/>
<path d="M389.414 154.414C390.195 153.633 390.195 152.367 389.414 151.586L376.686 138.858C375.905 138.077 374.639 138.077 373.858 138.858C373.077 139.639 373.077 140.905 373.858 141.686L385.172 153L373.858 164.314C373.077 165.095 373.077 166.361 373.858 167.142C374.639 167.923 375.905 167.923 376.686 167.142L389.414 154.414ZM38 155H388V151H38V155Z" fill="white"/>
<path d="M72.5 37.6693L98.5 58.4764L121 54.0177L151.5 77.5L182.5 74.8248L202 92.3622L251 95.0374L255 108.711L296.5 127.14" stroke="white" stroke-width="5"/>
<ellipse cx="99" cy="57.8819" rx="3" ry="1.78346" fill="white"/>
<ellipse cx="202" cy="91.7677" rx="3" ry="1.78346" fill="white"/>
<ellipse cx="256" cy="107.819" rx="3" ry="1.78346" fill="white"/>
<ellipse cx="250" cy="95.3346" rx="3" ry="1.78346" fill="white"/>
<ellipse cx="152" cy="77.5" rx="3" ry="1.78346" fill="white"/>
<line x1="267" y1="126.5" x2="295" y2="126.5" stroke="white" stroke-width="5"/>
<line y1="-2.5" x2="21" y2="-2.5" transform="matrix(-0.233651 -0.97232 0.996413 -0.0846223 297 127.437)" stroke="white" stroke-width="5"/>
<path d="M17 140.032H4.20313V135.55C4.20313 133.997 4.50195 132.819 5.09961 132.017C5.69141 131.214 6.56152 130.812 7.70996 130.812C8.33691 130.812 8.89063 130.974 9.37109 131.296C9.8457 131.618 10.1943 132.066 10.417 132.641C10.5811 131.984 10.9121 131.469 11.4102 131.094C11.9082 130.713 12.5176 130.522 13.2383 130.522C14.4688 130.522 15.4004 130.915 16.0332 131.7C16.666 132.485 16.9883 133.604 17 135.058V140.032ZM11.4277 137.396H14.8818V135.137C14.8818 134.516 14.7354 134.032 14.4424 133.687C14.1436 133.335 13.7334 133.159 13.2119 133.159C12.04 133.159 11.4453 133.766 11.4277 134.979V137.396ZM9.56445 137.396V135.444C9.54102 134.114 9.01074 133.449 7.97363 133.449C7.39355 133.449 6.97754 133.619 6.72559 133.959C6.46777 134.293 6.33887 134.823 6.33887 135.55V137.396H9.56445ZM17 126.022V128.571H3.5V126.022H17ZM12.1572 124.317C11.2139 124.317 10.373 124.136 9.63477 123.772C8.89648 123.409 8.3252 122.888 7.9209 122.208C7.5166 121.522 7.31445 120.729 7.31445 119.826C7.31445 118.543 7.70703 117.497 8.49219 116.688C9.27734 115.874 10.3438 115.42 11.6914 115.326L12.3418 115.309C13.8008 115.309 14.9727 115.716 15.8574 116.53C16.7363 117.345 17.1758 118.438 17.1758 119.809C17.1758 121.18 16.7363 122.275 15.8574 123.096C14.9785 123.91 13.7832 124.317 12.2715 124.317H12.1572ZM12.3418 121.777C13.2441 121.777 13.9355 121.607 14.416 121.268C14.8906 120.928 15.1279 120.441 15.1279 119.809C15.1279 119.193 14.8936 118.713 14.4248 118.367C13.9502 118.021 13.1943 117.849 12.1572 117.849C11.2725 117.849 10.5869 118.021 10.1006 118.367C9.61426 118.713 9.37109 119.199 9.37109 119.826C9.37109 120.447 9.61426 120.928 10.1006 121.268C10.5811 121.607 11.3281 121.777 12.3418 121.777ZM12.1572 114.14C11.2139 114.14 10.373 113.958 9.63477 113.595C8.89648 113.231 8.3252 112.71 7.9209 112.03C7.5166 111.345 7.31445 110.551 7.31445 109.648C7.31445 108.365 7.70703 107.319 8.49219 106.511C9.27734 105.696 10.3438 105.242 11.6914 105.148L12.3418 105.131C13.8008 105.131 14.9727 105.538 15.8574 106.353C16.7363 107.167 17.1758 108.26 17.1758 109.631C17.1758 111.002 16.7363 112.098 15.8574 112.918C14.9785 113.732 13.7832 114.14 12.2715 114.14H12.1572ZM12.3418 111.6C13.2441 111.6 13.9355 111.43 14.416 111.09C14.8906 110.75 15.1279 110.264 15.1279 109.631C15.1279 109.016 14.8936 108.535 14.4248 108.189C13.9502 107.844 13.1943 107.671 12.1572 107.671C11.2725 107.671 10.5869 107.844 10.1006 108.189C9.61426 108.535 9.37109 109.021 9.37109 109.648C9.37109 110.27 9.61426 110.75 10.1006 111.09C10.5811 111.43 11.3281 111.6 12.3418 111.6ZM12.1748 103.962C10.6924 103.962 9.51172 103.631 8.63281 102.969C7.75391 102.301 7.31445 101.39 7.31445 100.235C7.31445 99.3096 7.66016 98.5449 8.35156 97.9414H3.5V95.3926H17L17 97.6865L15.9893 97.8096C16.7803 98.4424 17.1758 99.2568 17.1758 100.253C17.1758 101.372 16.7363 102.271 15.8574 102.951C14.9727 103.625 13.7451 103.962 12.1748 103.962ZM12.3594 101.422C13.25 101.422 13.9326 101.267 14.4072 100.956C14.8818 100.646 15.1191 100.194 15.1191 99.6025C15.1191 98.8174 14.7881 98.2637 14.126 97.9414H10.373C9.71094 98.2578 9.37988 98.8057 9.37988 99.585C9.37988 100.81 10.373 101.422 12.3594 101.422ZM13.6426 82.1387C13.1445 82.1387 12.7637 82.3145 12.5 82.666C12.2305 83.0176 11.9492 83.6504 11.6563 84.5645C11.3574 85.4785 11.0645 86.2021 10.7773 86.7354C9.99219 88.1885 8.93457 88.915 7.60449 88.915C6.91309 88.915 6.29785 88.7217 5.75879 88.335C5.21387 87.9424 4.78906 87.3828 4.48438 86.6562C4.17969 85.9238 4.02734 85.1035 4.02734 84.1953C4.02734 83.2812 4.19434 82.4668 4.52832 81.752C4.85645 81.0371 5.32227 80.4834 5.92578 80.0908C6.5293 79.6924 7.21484 79.4932 7.98242 79.4932V82.1299C7.39648 82.1299 6.94238 82.3145 6.62012 82.6836C6.29199 83.0527 6.12793 83.5713 6.12793 84.2393C6.12793 84.8838 6.26563 85.3848 6.54102 85.7422C6.81055 86.0996 7.16797 86.2783 7.61328 86.2783C8.0293 86.2783 8.37793 86.0703 8.65918 85.6543C8.94043 85.2324 9.2041 84.6143 9.4502 83.7998C9.90137 82.2998 10.4609 81.207 11.1289 80.5215C11.7969 79.8359 12.6289 79.4932 13.625 79.4932C14.7324 79.4932 15.6025 79.9121 16.2354 80.75C16.8623 81.5879 17.1758 82.7158 17.1758 84.1338C17.1758 85.1182 16.9971 86.0146 16.6396 86.8232C16.2764 87.6318 15.7813 88.25 15.1543 88.6777C14.5273 89.0996 13.8008 89.3105 12.9746 89.3105L12.9746 86.665C14.3867 86.665 15.0928 85.8213 15.0928 84.1338C15.0928 83.5068 14.9668 83.0176 14.7148 82.666C14.457 82.3145 14.0996 82.1387 13.6426 82.1387ZM8.52734 75.3887C7.71875 74.7148 7.31445 73.8682 7.31445 72.8486C7.31445 70.7861 8.5127 69.7402 10.9092 69.7109H17V72.251H10.9795C10.4346 72.251 10.0332 72.3682 9.77539 72.6025C9.51172 72.8369 9.37988 73.2266 9.37988 73.7715C9.37988 74.5156 9.66699 75.0547 10.2412 75.3887H17V77.9287H3.5L3.5 75.3887H8.52734ZM12.1572 68.1904C11.2139 68.1904 10.373 68.0088 9.63477 67.6455C8.89648 67.2822 8.3252 66.7607 7.9209 66.0811C7.5166 65.3955 7.31445 64.6016 7.31445 63.6992C7.31445 62.416 7.70703 61.3701 8.49219 60.5615C9.27734 59.7471 10.3438 59.293 11.6914 59.1992L12.3418 59.1816C13.8008 59.1816 14.9727 59.5889 15.8574 60.4033C16.7363 61.2178 17.1758 62.3105 17.1758 63.6816C17.1758 65.0527 16.7363 66.1484 15.8574 66.9688C14.9785 67.7832 13.7832 68.1904 12.2715 68.1904H12.1572ZM12.3418 65.6504C13.2441 65.6504 13.9355 65.4805 14.416 65.1406C14.8906 64.8008 15.1279 64.3145 15.1279 63.6816C15.1279 63.0664 14.8936 62.5859 14.4248 62.2402C13.9502 61.8945 13.1943 61.7217 12.1572 61.7217C11.2725 61.7217 10.5869 61.8945 10.1006 62.2402C9.61426 62.5859 9.37109 63.0723 9.37109 63.6992C9.37109 64.3203 9.61426 64.8008 10.1006 65.1406C10.5811 65.4805 11.3281 65.6504 12.3418 65.6504ZM9.87207 52.2734C9.8252 52.6191 9.80176 52.9238 9.80176 53.1875C9.80176 54.1484 10.127 54.7783 10.7773 55.0771H17V57.6172H7.49023L7.49023 55.2178L8.62402 55.1475C7.75098 54.6377 7.31445 53.9316 7.31445 53.0293C7.31445 52.748 7.35254 52.4844 7.42871 52.2383L9.87207 52.2734ZM5.15234 47.5625H7.49023V45.9365H9.35352V47.5625H14.0996C14.4512 47.5625 14.7031 47.4951 14.8555 47.3604C15.0078 47.2256 15.084 46.9678 15.084 46.5869C15.084 46.3057 15.0635 46.0566 15.0225 45.8398H16.9473C17.0996 46.3379 17.1758 46.8506 17.1758 47.3779C17.1758 49.1592 16.2764 50.0674 14.4775 50.1025H9.35352V51.4912H7.49023V50.1025H5.15234L5.15234 47.5625ZM17 39.0107C16.7715 39.1279 16.4873 39.2129 16.1475 39.2656C16.833 39.8809 17.1758 40.6807 17.1758 41.665C17.1758 42.5967 16.9063 43.3701 16.3672 43.9854C15.8281 44.5947 15.1484 44.8994 14.3281 44.8994C13.3203 44.8994 12.5469 44.5273 12.0078 43.7832C11.4688 43.0332 11.1963 41.9521 11.1904 40.54V39.3711H10.6455C10.2061 39.3711 9.85449 39.4854 9.59082 39.7139C9.32715 39.9365 9.19531 40.291 9.19531 40.7773C9.19531 41.2051 9.29785 41.542 9.50293 41.7881C9.70801 42.0283 9.98926 42.1484 10.3467 42.1484V44.6885C9.7959 44.6885 9.28613 44.5186 8.81738 44.1787C8.34863 43.8389 7.98242 43.3584 7.71875 42.7373C7.44922 42.1162 7.31445 41.4189 7.31445 40.6455C7.31445 39.4736 7.61035 38.5449 8.20215 37.8594C8.78809 37.168 9.61426 36.8223 10.6807 36.8223H14.8027C15.7051 36.8164 16.3877 36.6904 16.8506 36.4443H17V39.0107ZM15.2334 41.1113C15.2334 40.7363 15.1514 40.3906 14.9873 40.0742C14.8174 39.7578 14.5918 39.5234 14.3105 39.3711H12.6758V40.3203C12.6758 41.5918 13.1152 42.2686 13.9941 42.3506L14.1436 42.3594C14.46 42.3594 14.7207 42.248 14.9258 42.0254C15.1309 41.8027 15.2334 41.498 15.2334 41.1113ZM12.1748 35.2402C10.7158 35.2402 9.54102 34.8945 8.65039 34.2031C7.75977 33.5059 7.31445 32.5684 7.31445 31.3906C7.31445 30.3477 7.67188 29.5361 8.38672 28.9561L7.49023 28.8506V26.5479H16.6836C17.5156 26.5479 18.2393 26.7383 18.8545 27.1191C19.4697 27.4941 19.9385 28.0244 20.2607 28.71C20.583 29.3955 20.7441 30.1982 20.7441 31.1182C20.7441 31.8154 20.6035 32.4951 20.3223 33.1572C20.0469 33.8193 19.6895 34.3203 19.25 34.6602L17.7031 33.5352C18.4121 32.9023 18.7666 32.1348 18.7666 31.2324C18.7666 30.5586 18.585 30.0342 18.2217 29.6592C17.8643 29.2842 17.3545 29.0967 16.6924 29.0967H16.1826C16.8447 29.6826 17.1758 30.4531 17.1758 31.4082C17.1758 32.5508 16.7305 33.4766 15.8398 34.1855C14.9434 34.8887 13.7568 35.2402 12.2803 35.2402H12.1748ZM12.3594 32.7002C13.2207 32.7002 13.8975 32.5273 14.3896 32.1816C14.876 31.8359 15.1191 31.3613 15.1191 30.7578C15.1191 29.9844 14.8291 29.4307 14.249 29.0967H10.25C9.66992 29.4365 9.37988 29.9844 9.37988 30.7402C9.37988 31.3496 9.62891 31.8301 10.127 32.1816C10.625 32.5273 11.3691 32.7002 12.3594 32.7002ZM17.1758 20.2109C17.1758 21.6055 16.748 22.7422 15.8926 23.6211C15.0371 24.4941 13.8975 24.9307 12.4736 24.9307H12.2275C11.2725 24.9307 10.4199 24.7461 9.66992 24.377C8.91406 24.0078 8.33398 23.4863 7.92969 22.8125C7.51953 22.1328 7.31445 21.3594 7.31445 20.4922C7.31445 19.1914 7.72461 18.1689 8.54492 17.4248C9.36523 16.6748 10.5283 16.2998 12.0342 16.2998H13.0713L13.0713 22.3555C13.6924 22.2734 14.1904 22.0273 14.5654 21.6172C14.9404 21.2012 15.1279 20.6768 15.1279 20.0439C15.1279 19.0654 14.7734 18.3008 14.0645 17.75L15.4619 16.502C16.001 16.8828 16.4229 17.3984 16.7275 18.0488C17.0264 18.6992 17.1758 19.4199 17.1758 20.2109ZM9.37109 20.501C9.37109 21.0049 9.54102 21.415 9.88086 21.7314C10.2207 22.042 10.707 22.2412 11.3398 22.3291V18.7959H11.1377C10.5752 18.8076 10.1416 18.96 9.83691 19.2529C9.52637 19.5459 9.37109 19.9619 9.37109 20.501Z" fill="white"/>
</svg>
