<svg width="405" height="382" viewBox="0 0 405 382" fill="none" xmlns="http://www.w3.org/2000/svg">
<g clip-path="url(#clip0)">
<path d="M233.093 345.702C221.595 342.895 209.737 341.855 197.925 342.616C172.389 345.193 146.853 347.839 121.316 350.45C107.141 351.908 79.3998 354.655 65.6651 350.755C6.08007 333.799 31.7521 268.957 27.1739 221.31C24.5626 195.027 11.3705 171.322 4.04529 146.023C-10.2999 96.544 14.5583 34.1102 61.9685 15.119C96.5597 1.31643 136.78 -5.46617 171.27 8.64163C195.841 19.4303 216.383 37.694 229.973 60.8336C244.318 85.387 252.559 104.615 282.538 112.72C305.904 119.028 330.525 116.993 354.501 119.944C365.421 121.3 377.596 124.658 382.853 134.696C390.754 149.821 377.833 167.185 374.374 184.005C370 205.269 383.87 219.207 392.586 236.435C402.759 256.613 409.542 280.521 398.656 301.954C393.331 311.614 385.758 319.849 376.579 325.965C340.733 351.094 295.188 352.688 253.577 348.822C246.701 348.125 239.865 347.083 233.093 345.702Z" fill="#F48192"/>
<path d="M173.645 115.603C173.645 115.603 45.0809 149.516 41.7575 154.162C38.434 158.808 22.4949 171.322 34.6357 220.733C46.7766 270.144 55.56 336.613 90.7616 328.101C125.963 319.589 179.953 312.026 180.8 304.905C181.648 297.783 207.117 106.65 173.645 115.603Z" fill="#CEADAD"/>
<path d="M173.646 115.603C173.646 115.603 57.0197 146.429 43.1154 153.28C38.0963 166.167 58.6815 165.997 61.9032 172.407C66.7988 181.229 68.5971 191.438 67.0112 201.402C65.4252 211.367 60.5464 220.513 53.1537 227.38C58.1654 227.236 63.1052 228.597 67.3364 231.286C71.5676 233.976 74.896 237.872 76.8927 242.471C83.6753 262.819 77.4692 272.009 69.4658 278.283C75.8414 282.251 82.3527 285.811 87.3718 295.884C91.3735 307.889 99.0378 319.928 90.2544 328.169H90.7292C125.897 319.623 207.22 302.293 203.659 296.053C189.891 271.466 214.138 123.572 173.646 115.603Z" fill="white"/>
<path d="M313.201 271.365L111.589 350.721L138.923 362.998C170.534 377.188 205.087 383.59 239.684 381.666C274.28 379.742 307.911 369.549 337.754 351.942L388.623 322.031C392.475 319.765 395.52 316.349 397.332 312.264C399.144 308.179 399.632 303.63 398.727 299.253C397.822 294.877 395.569 290.894 392.285 287.863C389.001 284.832 384.851 282.905 380.417 282.353L313.201 271.365Z" fill="#F4E4E5"/>
<path d="M170.658 177.155C170.658 177.155 199.349 157.044 207.081 199.775C210.472 217.986 211.048 222.598 211.048 222.598C235.33 226.362 238.654 235.112 269.447 238.707C293.016 238.707 305.157 251.254 305.157 251.254C305.157 251.254 308.921 260.682 307.361 265.057C306.729 266.415 305.785 267.605 304.607 268.53C303.428 269.455 302.048 270.089 300.579 270.381C300.671 272.174 300.235 273.955 299.324 275.502C297.967 276.96 295.932 263.667 291.795 260.852C287.658 258.037 290.54 265.667 289.184 266.515C287.827 267.363 282.401 261.801 278.298 254.985C274.194 248.168 259.34 259.631 196.33 248.508C176.389 228.94 170.658 177.155 170.658 177.155Z" fill="url(#paint0_linear)"/>
<path d="M214.135 201.911C212.507 198.045 210.438 191.738 208.675 186.854C191.718 140.834 170.658 147.719 170.658 147.719C173.82 170.092 178.741 192.181 185.376 213.781C195.35 210.839 204.989 206.861 214.135 201.911Z" fill="#EB2441"/>
<path d="M198.69 308.669C186.379 320.674 157.248 328.406 135.273 328.067C126.009 327.641 116.792 326.507 107.701 324.676C91.7599 296.048 82.3557 264.245 80.164 231.551L73.8902 233.213C65.1438 218.775 60.2511 202.334 59.6806 185.463C59.2737 158.638 101.8 144.191 105.565 142.937C136.086 132.424 162.301 140.868 181.937 148.566C202.624 194.315 184.819 257.969 198.69 308.669Z" fill="#EB2441"/>
<g style="mix-blend-mode:multiply">
<g style="mix-blend-mode:multiply">
<g style="mix-blend-mode:multiply">
<path d="M124.266 290.628C136.916 320.437 134.677 327.254 134.27 327.932C124.096 327.932 115.415 325.931 110.803 321.896C88.1488 293.646 79.1279 231.484 79.1279 231.484L81.6375 230.67C88.0883 229.26 93.8036 225.547 97.7122 220.225C105.105 210.763 110.769 212.052 110.769 212.052C107.982 204.264 104.461 196.758 100.256 189.635C110.43 196.757 121.417 220.157 121.824 231.755C122.231 243.353 154.923 244.269 154.923 244.269C154.923 244.269 110.701 258.818 124.266 290.628Z" fill="#E6E7E8"/>
</g>
</g>
</g>
<path d="M105.277 133.508C105.277 133.508 95.8157 142.529 94.3574 147.379C96.6296 158.061 116.842 176.476 123.421 174.509C129.796 161.995 134.239 161.351 134.239 161.351L134.951 144.394L105.277 133.508Z" fill="white"/>
<path d="M134.238 161.487C134.238 161.487 144.683 163.59 146.82 172.814C154.213 172.814 165.031 155.857 161.335 140.427C155.807 131.678 142.683 128.49 142.683 128.49L134.238 161.487Z" fill="white"/>
<path d="M150.751 140.461C148.581 145.684 142.714 152.466 134.269 161.453C132.302 153.721 113.922 149.143 105.884 142.666C104.733 141.798 103.774 140.701 103.069 139.444C102.926 139.186 102.812 138.913 102.73 138.63C101.815 135.883 103.951 133.916 107.308 132.559L107.851 132.356C114.649 130.272 121.701 129.131 128.809 128.965C133.877 127.717 139.172 127.717 144.24 128.965C144.585 129.043 144.925 129.145 145.257 129.27C146.473 129.721 147.616 130.35 148.648 131.135C149.763 131.931 150.633 133.024 151.158 134.289C151.843 136.319 151.697 138.538 150.751 140.461Z" fill="#E25A5A"/>
<path d="M150.755 140.461C148.585 145.684 142.718 152.467 134.273 161.453C132.306 153.721 113.926 149.143 105.888 142.666C106.54 141.501 107.009 140.242 107.279 138.935C107.738 136.705 107.92 134.427 107.821 132.153C107.821 131.644 107.821 131.135 107.821 130.66C107.075 118.113 97.4779 104.276 111.891 104.141C123.051 104.555 134.025 107.123 144.21 111.703C143.904 117.442 143.904 123.192 144.21 128.931C144.335 131.219 144.675 133.49 145.227 135.714C145.403 136.692 145.876 137.592 146.584 138.291C147.875 139.192 149.277 139.921 150.755 140.461Z" fill="#FFC9AE"/>
<g style="mix-blend-mode:multiply" opacity="0.3">
<g style="mix-blend-mode:multiply" opacity="0.3">
<g style="mix-blend-mode:multiply" opacity="0.3">
<g style="mix-blend-mode:multiply" opacity="0.3">
<g style="mix-blend-mode:multiply" opacity="0.3">
<path d="M144.551 149.957C147.044 147.103 149.133 143.919 150.757 140.495C149.273 139.923 147.871 139.159 146.586 138.223C145.878 137.524 145.404 136.624 145.229 135.646C144.677 133.422 144.337 131.151 144.212 128.863C143.905 123.125 143.905 117.374 144.212 111.635C134.004 107.109 123.019 104.599 111.859 104.242C110.63 104.087 109.382 104.211 108.208 104.604C107.034 104.997 105.963 105.65 105.076 106.514C108.501 128.422 125.831 141.106 144.551 149.957Z" fill="#EF9D78"/>
</g>
</g>
</g>
</g>
</g>
<path d="M166.865 88.2689C168.68 94.7789 168.692 101.66 166.9 108.177C165.108 114.693 161.579 120.601 156.691 125.268C152.622 129.236 154.928 131.779 146.517 133.305C103.516 134.662 95.6479 90.8459 95.3087 77.0779C94.9696 63.3088 171.409 22.1386 166.865 88.2689Z" fill="url(#paint1_linear)"/>
<path d="M93.2706 110.821C95.8463 113.073 98.7225 114.956 101.817 116.417C104.201 117.739 106.947 118.262 109.651 117.909C105.846 111.971 103.445 105.244 102.631 98.239C102.427 96.408 102.631 94.068 104.394 93.492C105.016 93.398 105.652 93.461 106.244 93.674C106.836 93.887 107.365 94.244 107.785 94.713C110.604 97.195 112.484 100.572 113.11 104.276C112.502 98.396 114.248 92.515 117.966 87.92C121.684 83.324 127.072 80.389 132.949 79.757C138.883 78.672 143.733 81.012 149.6 80.876C158.451 80.639 166.862 79.553 172.22 71.55C174.238 68.3701 175.509 64.7744 175.937 61.0329C176.366 57.2914 175.942 53.5013 174.696 49.9474C172.433 51.048 169.909 51.4976 167.406 51.2461C164.902 50.9945 162.518 50.0517 160.52 48.5231C156.315 45.8101 152.991 41.7405 148.99 38.8579C141.609 33.6196 132.775 30.8211 123.724 30.8545C117.855 30.7927 111.998 31.3841 106.259 32.6179C101.037 33.6692 95.7123 34.3136 92.1176 38.6545C91.0755 40.3728 90.1575 42.1634 89.3706 44.0127C81.1298 44.0127 69.7011 52.4231 73.3637 69.1421C76.4837 83.928 81.5707 100.647 93.2706 110.821Z" fill="#332B28"/>
<path d="M113.521 137.375L99.0402 116.009C98.6961 115.511 98.5117 114.919 98.5117 114.314C98.5117 113.708 98.6961 113.117 99.0402 112.618L105.178 103.122C105.445 102.688 105.819 102.328 106.265 102.079C106.71 101.83 107.212 101.699 107.722 101.699C108.232 101.699 108.734 101.83 109.179 102.079C109.625 102.328 109.998 102.688 110.265 103.122L125.73 130.049C125.923 130.39 126.048 130.766 126.097 131.154C126.145 131.543 126.117 131.938 126.013 132.316C125.909 132.694 125.732 133.047 125.491 133.357C125.25 133.666 124.951 133.925 124.611 134.119L115.658 139.206L113.521 137.375Z" fill="#676BB7"/>
<path d="M112.81 136.561L99.2452 116.586C98.9476 116.133 98.7891 115.602 98.7891 115.06C98.7891 114.518 98.9476 113.987 99.2452 113.534L104.536 105.598C104.784 105.191 105.133 104.855 105.548 104.622C105.964 104.388 106.433 104.266 106.91 104.266C107.386 104.266 107.855 104.388 108.271 104.622C108.686 104.855 109.035 105.191 109.283 105.598L123.764 130.795C123.945 131.114 124.062 131.465 124.107 131.828C124.152 132.191 124.125 132.56 124.028 132.913C123.93 133.266 123.764 133.596 123.538 133.884C123.312 134.173 123.032 134.414 122.713 134.594L114.811 138.426L112.81 136.561Z" fill="#FA7070"/>
<path d="M106.4 117.874C107.617 117.874 108.604 116.644 108.604 115.127C108.604 113.61 107.617 112.38 106.4 112.38C105.182 112.38 104.195 113.61 104.195 115.127C104.195 116.644 105.182 117.874 106.4 117.874Z" fill="white"/>
<path d="M81.6709 230.839C100.526 225.922 96.7621 212.526 110.802 211.916L111.887 213.883C111.887 213.883 112.871 198.724 123.452 164.913C123.452 164.913 112.464 145.752 111.819 141.174C111.175 136.595 115.211 120.826 119.992 121.063C121.28 121.109 122.515 121.59 123.494 122.427C124.474 123.265 125.14 124.41 125.385 125.675C125.385 125.675 128.471 126.082 129.115 130.796C129.115 130.796 133.829 129.541 133.829 137.07C135.728 137.375 139.492 140.461 137.593 147.753C135.694 155.044 143.325 164.099 138.102 167.863C136.949 180.75 144.512 231.925 122.943 254.544C107.513 260.683 89.403 241.013 81.6709 230.839Z" fill="url(#paint2_linear)"/>
<path d="M357.618 297.58C357.497 298.417 357.187 299.216 356.711 299.916C356.235 300.615 355.606 301.196 354.871 301.616L273.073 349.399C272.406 349.795 271.663 350.048 270.892 350.141C270.122 350.235 269.34 350.167 268.597 349.942L210.606 332.985C209.485 332.656 208.494 331.988 207.768 331.073C207.042 330.159 206.616 329.042 206.549 327.876C206.482 326.71 206.778 325.552 207.395 324.56C208.012 323.569 208.92 322.792 209.995 322.337L285.079 290.425L303.154 282.726C304.228 282.288 305.406 282.17 306.545 282.387L353.176 291.137C354.607 291.425 355.871 292.258 356.7 293.46C357.529 294.662 357.858 296.14 357.618 297.58Z" fill="#2E3152"/>
<path d="M357.624 297.58C357.503 298.417 357.193 299.216 356.717 299.916C356.241 300.615 355.612 301.196 354.877 301.616L273.079 349.399C271.722 350.213 272.265 347.975 270.773 347.534L212.782 330.577C207.661 329.119 205.084 324.405 210.001 322.337L285.084 290.425L303.16 282.726C304.234 282.288 305.412 282.17 306.551 282.387L353.181 291.137C354.613 291.425 355.877 292.258 356.705 293.46C357.534 294.662 357.864 296.14 357.624 297.58Z" fill="#EFB4BA"/>
<path d="M370.343 225.481C370.904 225.239 371.52 225.154 372.126 225.234C372.732 225.314 373.305 225.556 373.784 225.935C374.263 226.314 374.632 226.815 374.85 227.386C375.068 227.956 375.128 228.575 375.023 229.177L357.49 297.579C357.369 298.417 357.059 299.215 356.583 299.915C356.107 300.614 355.478 301.196 354.743 301.615L272.945 349.398C272.278 349.794 271.535 350.047 270.764 350.141C269.993 350.234 269.212 350.166 268.469 349.941L284.95 290.39L290.546 270.042C290.826 269.04 291.307 268.105 291.96 267.294C292.613 266.484 293.424 265.815 294.344 265.328L370.343 225.481Z" fill="#EB2441"/>
<path d="M151.672 338.344L160.455 364.219C160.455 364.219 182.634 376.665 197.76 363.1C206.441 340.65 206.611 336.241 206.611 336.241L151.672 338.344Z" fill="#803312"/>
<path d="M148.726 333.528C150.09 337.999 151.838 342.345 153.948 346.516C156.424 350.688 195.491 351.874 205.089 344.685C209.599 333.935 209.362 332.408 209.362 332.408L148.726 333.528Z" fill="#B75637"/>
<path d="M148.008 331.696L148.72 333.527C148.72 333.527 152.688 338.343 169.644 337.902C186.601 337.461 207.152 337.902 209.39 332.408C211.628 326.914 159.436 326.202 148.008 331.696Z" fill="#676BB7"/>
<path d="M153.301 331.696L153.877 332.815C153.877 332.815 157.269 335.732 171.071 335.461C184.874 335.189 201.898 335.461 203.729 332.069C205.561 328.678 162.864 328.373 153.301 331.696Z" fill="#E1E2FF"/>
<path d="M177.039 332.646C171.988 317.936 162.286 305.27 149.4 296.562C142.945 291.634 134.917 289.223 126.814 289.78C124.368 289.959 122.074 291.034 120.371 292.798C119.347 294.246 118.798 295.976 118.798 297.749C118.798 299.523 119.347 301.252 120.371 302.701C122.512 305.538 125.335 307.789 128.578 309.246C143.092 316.876 162.05 318.097 170.019 332.442C170.663 333.595 176.191 329.797 176.802 330.984" fill="#28782B"/>
<path d="M202.708 321.963C198.825 323.548 195.432 326.134 192.873 329.457C190.481 332.259 187.133 334.072 183.479 334.544C183.337 334.617 183.179 334.653 183.019 334.651C182.859 334.648 182.702 334.607 182.561 334.53C182.421 334.453 182.301 334.343 182.213 334.21C182.125 334.076 182.071 333.923 182.055 333.764C181.139 331.017 180.732 328.135 179.715 325.422C178.12 321.434 175.974 317.69 173.339 314.298C169.787 309.486 168.024 303.585 168.354 297.613C170.185 303.65 175.781 304.972 181.004 306.77C182.462 307.278 183.106 307.719 183.445 306.159C183.327 303.657 182.716 301.202 181.648 298.936C181.071 296.901 180.495 294.866 180.054 292.797C179.651 290.841 179.39 288.857 179.274 286.863C179.102 284.849 179.262 282.821 179.749 280.86C180.211 279.316 180.909 277.851 181.818 276.519C183.914 273.349 186.755 270.741 190.092 268.923C189.929 269.869 189.969 270.839 190.209 271.768C190.448 272.698 190.883 273.566 191.483 274.315C192.501 276.408 193.74 278.386 195.179 280.216C195.474 280.527 195.846 280.753 196.257 280.873C196.668 280.992 197.104 280.999 197.519 280.894C198.075 280.668 198.548 280.277 198.876 279.775C200.021 277.954 200.954 276.009 201.657 273.976C203.317 270.898 205.654 268.238 208.491 266.193C211.328 264.149 214.592 262.775 218.037 262.174C218.585 262.12 219.139 262.177 219.664 262.344C220.41 262.702 221.026 263.283 221.428 264.005C222.617 265.926 223.381 268.079 223.667 270.32C223.954 272.56 223.757 274.836 223.09 276.994C222.565 279.115 221.581 281.094 220.207 282.793C218.444 284.624 216.375 285.608 214.984 287.914C213.187 290.932 220.275 289.338 221.292 289.033C223.02 288.593 224.669 287.884 226.176 286.931C226.924 286.445 227.557 285.802 228.032 285.046C228.506 284.291 228.81 283.441 228.923 282.556C231.681 285.23 233.266 288.889 233.331 292.73C233.331 302.7 222.954 302.904 215.866 305.481C216.537 306.347 217.375 307.07 218.33 307.606C219.286 308.142 220.339 308.48 221.428 308.601C223.207 308.694 224.961 308.153 226.379 307.075C226.379 307.075 226.379 310.195 226.379 310.466C226.061 311.717 225.457 312.878 224.616 313.857C222.662 315.949 220.077 317.343 217.257 317.825C212.294 318.769 207.425 320.154 202.708 321.963Z" fill="#2A7D3C"/>
<path d="M177.345 333.833C174.972 332.268 173.001 330.166 171.593 327.697C170.185 325.228 169.378 322.462 169.24 319.623C169.02 313.969 169.145 308.306 169.613 302.667C169.841 296.843 168.739 291.044 166.391 285.71C164.533 282.173 162.425 278.774 160.083 275.536C157.74 272.311 156.078 268.641 155.2 264.752C154.785 262.802 154.837 260.781 155.349 258.854C155.862 256.928 156.822 255.149 158.15 253.662C160.362 251.698 163.094 250.415 166.018 249.966C168.943 249.275 171.979 249.194 174.937 249.729C175.785 249.863 176.588 250.2 177.277 250.712C177.909 251.286 178.387 252.009 178.668 252.815C180.974 258.614 178.905 265.091 177.582 271.195C176.61 274.277 176.694 277.595 177.82 280.623C179.576 283.364 182.051 285.569 184.975 286.999C187.917 288.452 190.161 291.013 191.215 294.121C191.572 296.493 191.028 298.912 189.689 300.903C188.468 302.938 186.841 304.667 185.416 306.567C182.515 310.539 180.586 315.136 179.785 319.99C178.984 324.843 179.333 329.817 180.804 334.511" fill="#6EC460"/>
</g>
<defs>
<linearGradient id="paint0_linear" x1="11290.7" y1="21442.3" x2="16831.6" y2="21442.3" gradientUnits="userSpaceOnUse">
<stop stop-color="#FFDDCC"/>
<stop offset="1" stop-color="#FFBC97"/>
</linearGradient>
<linearGradient id="paint1_linear" x1="4614.02" y1="13692.7" x2="6186.84" y2="13692.7" gradientUnits="userSpaceOnUse">
<stop stop-color="#FFDDCC"/>
<stop offset="1" stop-color="#FFBC97"/>
</linearGradient>
<linearGradient id="paint2_linear" x1="3280.72" y1="26455.3" x2="4282.18" y2="26455.3" gradientUnits="userSpaceOnUse">
<stop stop-color="#FFDDCC"/>
<stop offset="1" stop-color="#FFBC97"/>
</linearGradient>
<clipPath id="clip0">
<rect width="405" height="382" fill="white"/>
</clipPath>
</defs>
</svg>
