<svg width="310" height="310" viewBox="0 0 310 310" fill="none" xmlns="http://www.w3.org/2000/svg">
<path d="M146.417 95.5157C144.268 97.6302 142.918 100.424 142.598 103.422C142.278 106.42 143.007 109.436 144.662 111.957C146.316 114.478 148.793 116.347 151.671 117.245C154.549 118.144 157.65 118.018 160.444 116.887C163.239 115.756 165.556 113.691 166.999 111.044C168.442 108.397 168.923 105.332 168.359 102.37C167.796 99.4079 166.223 96.7331 163.908 94.8011C161.593 92.8691 158.68 91.7993 155.666 91.7742C153.954 91.7575 152.255 92.0795 150.668 92.7216C149.081 93.3637 147.636 94.3133 146.417 95.5157V95.5157Z" fill="white"/>
<path d="M161.639 7.49309C161.627 7.4843 161.617 7.47373 161.608 7.46174C160.045 6.46017 158.233 5.91537 156.377 5.8888C154.521 5.86223 152.694 6.35495 151.103 7.31136C138.236 14.9782 124.562 33.7216 113.588 58.7449C102.54 83.9783 96.0633 111.565 95.884 134.483C95.8006 141.802 96.2306 149.119 97.1707 156.378C89.0517 163.672 83.2896 171.511 79.9932 179.7C68.5806 208.311 85.0936 236.602 92.7026 247.403C93.7797 248.942 95.1974 250.211 96.8452 251.113C98.493 252.014 100.327 252.523 102.203 252.599C104.08 252.676 105.949 252.319 107.665 251.556C109.381 250.792 110.898 249.643 112.097 248.198L112.142 248.153L132.14 223.695C132.449 223.953 132.737 224.184 132.997 224.4C135.967 226.847 139.688 228.199 143.536 228.228L165.218 228.424C169.066 228.467 172.811 227.183 175.822 224.788L176.65 224.132L196.198 248.9L196.242 248.946C197.302 250.273 198.626 251.365 200.132 252.151C201.637 252.937 203.29 253.4 204.985 253.511C206.68 253.622 208.379 253.379 209.974 252.795C211.569 252.212 213.025 251.303 214.249 250.125C214.733 249.649 215.178 249.135 215.577 248.586C223.45 237.892 240.512 209.974 229.47 181.084C226.334 172.898 220.734 164.99 212.795 157.532C213.887 150.279 214.459 142.957 214.505 135.622C214.765 112.597 208.943 85.007 198.52 59.9246C188.148 34.9567 174.697 15.842 161.639 7.49309V7.49309ZM184.205 105.038C184.158 110.715 182.429 116.25 179.236 120.944C176.043 125.638 171.529 129.279 166.266 131.407C161.003 133.535 155.227 134.054 149.669 132.899C144.111 131.743 139.021 128.965 135.042 124.916C131.063 120.867 128.374 115.729 127.316 110.152C126.258 104.574 126.878 98.8084 129.097 93.5834C131.317 88.3584 135.036 83.9091 139.785 80.7984C144.533 77.6877 150.098 76.0553 155.775 76.1078C159.549 76.1122 163.285 76.8672 166.765 78.3288C170.245 79.7905 173.4 81.9297 176.046 84.6219C178.691 87.3141 180.775 90.5056 182.176 94.0106C183.576 97.5157 184.266 101.264 184.205 105.038V105.038Z" fill="white"/>
<path d="M166.881 232.622C165.369 233.779 164.331 235.449 163.963 237.317C163.234 241.026 162.476 244.727 161.66 248.411C160.01 255.865 149.43 256.022 147.502 248.633L144.546 237.161C144.282 235.682 143.596 234.31 142.571 233.211C141.546 232.111 140.226 231.331 138.769 230.962C137.312 230.594 135.779 230.654 134.356 231.135C132.932 231.616 131.677 232.498 130.741 233.674C126.629 238.883 124.365 245.312 124.308 251.949C124.289 254.48 124.226 262.169 136.668 279.003C140.247 283.833 144.073 288.475 148.131 292.91C148.842 293.673 149.7 294.285 150.652 294.711C151.604 295.137 152.632 295.367 153.674 295.39C154.717 295.412 155.754 295.225 156.723 294.841C157.693 294.456 158.575 293.881 159.319 293.15L159.458 293.013C163.597 288.647 167.51 284.071 171.179 279.304C183.917 262.679 183.984 254.987 184.006 252.46C184.079 245.806 181.903 239.323 177.831 234.061C176.569 232.419 174.707 231.345 172.653 231.075C170.6 230.805 168.524 231.362 166.881 232.622Z" fill="white"/>
</svg>
